%FSLAX45Y45*%
G04 Gerber Fmt 4.5, Leading zero omitted, Abs format (unit mm)*
G04 Created by KiCad (PCBNEW 4.0.7) date 06/24/19 17:32:00*
%MOMM*%
%LPD*%
G01*
G04 APERTURE LIST*
%ADD10C,0.127000*%
%ADD11C,0.100000*%
%ADD12C,0.200000*%
%ADD13C,0.300000*%
G04 APERTURE END LIST*
D10*
D11*
X13157200Y-3962400D02*
X16459200Y-3962400D01*
X13157200Y-3962400D02*
X13157200Y-14122400D01*
X16459200Y-14122400D02*
X13157200Y-14122400D01*
X16459200Y-3962400D02*
X16459200Y-14122400D01*
D12*
X13307060Y-13700760D02*
X13388340Y-13782040D01*
X13388340Y-13700760D02*
X13307060Y-13782040D01*
X13624560Y-4175760D02*
X13705840Y-4257040D01*
X13705840Y-4175760D02*
X13624560Y-4257040D01*
X13624560Y-4937760D02*
X13705840Y-5019040D01*
X13705840Y-4937760D02*
X13624560Y-5019040D01*
X13624560Y-5445760D02*
X13705840Y-5527040D01*
X13705840Y-5445760D02*
X13624560Y-5527040D01*
X13624560Y-5953760D02*
X13705840Y-6035040D01*
X13705840Y-5953760D02*
X13624560Y-6035040D01*
X13624560Y-6715760D02*
X13705840Y-6797040D01*
X13705840Y-6715760D02*
X13624560Y-6797040D01*
X13624560Y-7477760D02*
X13705840Y-7559040D01*
X13705840Y-7477760D02*
X13624560Y-7559040D01*
X13624560Y-7985760D02*
X13705840Y-8067040D01*
X13705840Y-7985760D02*
X13624560Y-8067040D01*
X13624560Y-8493760D02*
X13705840Y-8575040D01*
X13705840Y-8493760D02*
X13624560Y-8575040D01*
X13624560Y-9255760D02*
X13705840Y-9337040D01*
X13705840Y-9255760D02*
X13624560Y-9337040D01*
X13624560Y-10017760D02*
X13705840Y-10099040D01*
X13705840Y-10017760D02*
X13624560Y-10099040D01*
X13624560Y-10525760D02*
X13705840Y-10607040D01*
X13705840Y-10525760D02*
X13624560Y-10607040D01*
X13624560Y-11033760D02*
X13705840Y-11115040D01*
X13705840Y-11033760D02*
X13624560Y-11115040D01*
X13624560Y-11541760D02*
X13705840Y-11623040D01*
X13705840Y-11541760D02*
X13624560Y-11623040D01*
X13624560Y-12049760D02*
X13705840Y-12131040D01*
X13705840Y-12049760D02*
X13624560Y-12131040D01*
X13688060Y-13700760D02*
X13769340Y-13782040D01*
X13769340Y-13700760D02*
X13688060Y-13782040D01*
X14323060Y-11478260D02*
X14404340Y-11559540D01*
X14404340Y-11478260D02*
X14323060Y-11559540D01*
X15085060Y-11478260D02*
X15166340Y-11559540D01*
X15166340Y-11478260D02*
X15085060Y-11559540D01*
X15275560Y-7604760D02*
X15356840Y-7686040D01*
X15356840Y-7604760D02*
X15275560Y-7686040D01*
X15275560Y-7858760D02*
X15356840Y-7940040D01*
X15356840Y-7858760D02*
X15275560Y-7940040D01*
X15275560Y-8112760D02*
X15356840Y-8194040D01*
X15356840Y-8112760D02*
X15275560Y-8194040D01*
X15275560Y-8366760D02*
X15356840Y-8448040D01*
X15356840Y-8366760D02*
X15275560Y-8448040D01*
X15275560Y-8620760D02*
X15356840Y-8702040D01*
X15356840Y-8620760D02*
X15275560Y-8702040D01*
X15275560Y-8874760D02*
X15356840Y-8956040D01*
X15356840Y-8874760D02*
X15275560Y-8956040D01*
X15275560Y-9128760D02*
X15356840Y-9210040D01*
X15356840Y-9128760D02*
X15275560Y-9210040D01*
X15275560Y-10017760D02*
X15356840Y-10099040D01*
X15356840Y-10017760D02*
X15275560Y-10099040D01*
X15275560Y-10779760D02*
X15356840Y-10861040D01*
X15356840Y-10779760D02*
X15275560Y-10861040D01*
X15580360Y-11135360D02*
X15661640Y-11216640D01*
X15661640Y-11135360D02*
X15580360Y-11216640D01*
X15580360Y-11897360D02*
X15661640Y-11978640D01*
X15661640Y-11897360D02*
X15580360Y-11978640D01*
X15593060Y-10017760D02*
X15674340Y-10099040D01*
X15674340Y-10017760D02*
X15593060Y-10099040D01*
X15593060Y-10779760D02*
X15674340Y-10861040D01*
X15674340Y-10779760D02*
X15593060Y-10861040D01*
X15910560Y-10017760D02*
X15991840Y-10099040D01*
X15991840Y-10017760D02*
X15910560Y-10099040D01*
X15910560Y-10779760D02*
X15991840Y-10861040D01*
X15991840Y-10779760D02*
X15910560Y-10861040D01*
X15910560Y-11097260D02*
X15991840Y-11178540D01*
X15991840Y-11097260D02*
X15910560Y-11178540D01*
X15910560Y-11859260D02*
X15991840Y-11940540D01*
X15991840Y-11859260D02*
X15910560Y-11940540D01*
X16037560Y-7604760D02*
X16118840Y-7686040D01*
X16118840Y-7604760D02*
X16037560Y-7686040D01*
X16037560Y-7858760D02*
X16118840Y-7940040D01*
X16118840Y-7858760D02*
X16037560Y-7940040D01*
X16037560Y-8112760D02*
X16118840Y-8194040D01*
X16118840Y-8112760D02*
X16037560Y-8194040D01*
X16037560Y-8366760D02*
X16118840Y-8448040D01*
X16118840Y-8366760D02*
X16037560Y-8448040D01*
X16037560Y-8620760D02*
X16118840Y-8702040D01*
X16118840Y-8620760D02*
X16037560Y-8702040D01*
X16037560Y-8874760D02*
X16118840Y-8956040D01*
X16118840Y-8874760D02*
X16037560Y-8956040D01*
X16037560Y-9128760D02*
X16118840Y-9210040D01*
X16118840Y-9128760D02*
X16037560Y-9210040D01*
X15806200Y-12598400D02*
G75*
G03X15806200Y-12598400I-45500J0D01*
G01*
X15806200Y-12852400D02*
G75*
G03X15806200Y-12852400I-45500J0D01*
G01*
X15806200Y-13106400D02*
G75*
G03X15806200Y-13106400I-45500J0D01*
G01*
X15806200Y-13360400D02*
G75*
G03X15806200Y-13360400I-45500J0D01*
G01*
X15806200Y-13614400D02*
G75*
G03X15806200Y-13614400I-45500J0D01*
G01*
X16060200Y-12598400D02*
G75*
G03X16060200Y-12598400I-45500J0D01*
G01*
X16060200Y-12852400D02*
G75*
G03X16060200Y-12852400I-45500J0D01*
G01*
X16060200Y-13106400D02*
G75*
G03X16060200Y-13106400I-45500J0D01*
G01*
X16060200Y-13360400D02*
G75*
G03X16060200Y-13360400I-45500J0D01*
G01*
X16060200Y-13614400D02*
G75*
G03X16060200Y-13614400I-45500J0D01*
G01*
X14300200Y-5309400D02*
X14300200Y-5409400D01*
X14250200Y-5359400D02*
X14350200Y-5359400D01*
X14300200Y-7849400D02*
X14300200Y-7949400D01*
X14250200Y-7899400D02*
X14350200Y-7899400D01*
X14300200Y-10389400D02*
X14300200Y-10489400D01*
X14250200Y-10439400D02*
X14350200Y-10439400D01*
X14554200Y-5309400D02*
X14554200Y-5409400D01*
X14504200Y-5359400D02*
X14604200Y-5359400D01*
X14554200Y-7849400D02*
X14554200Y-7949400D01*
X14504200Y-7899400D02*
X14604200Y-7899400D01*
X14554200Y-10389400D02*
X14554200Y-10489400D01*
X14504200Y-10439400D02*
X14604200Y-10439400D01*
X14808200Y-5309400D02*
X14808200Y-5409400D01*
X14758200Y-5359400D02*
X14858200Y-5359400D01*
X14808200Y-7849400D02*
X14808200Y-7949400D01*
X14758200Y-7899400D02*
X14858200Y-7899400D01*
X14808200Y-10389400D02*
X14808200Y-10489400D01*
X14758200Y-10439400D02*
X14858200Y-10439400D01*
X14272621Y-11173821D02*
X14272621Y-11101979D01*
X14200779Y-11101979D01*
X14200779Y-11173821D01*
X14272621Y-11173821D01*
X15288621Y-11173821D02*
X15288621Y-11101979D01*
X15216779Y-11101979D01*
X15216779Y-11173821D01*
X15288621Y-11173821D01*
X15189200Y-12278400D02*
X15250200Y-12217400D01*
X15189200Y-12156400D01*
X15128200Y-12217400D01*
X15189200Y-12278400D01*
X15189200Y-13548400D02*
X15250200Y-13487400D01*
X15189200Y-13426400D01*
X15128200Y-13487400D01*
X15189200Y-13548400D01*
X14808200Y-12146400D02*
X14950200Y-12288400D01*
X14950200Y-12146400D02*
X14808200Y-12288400D01*
X14950200Y-12217400D02*
G75*
G03X14950200Y-12217400I-71000J0D01*
G01*
X14808200Y-13416400D02*
X14950200Y-13558400D01*
X14950200Y-13416400D02*
X14808200Y-13558400D01*
X14950200Y-13487400D02*
G75*
G03X14950200Y-13487400I-71000J0D01*
G01*
X13977700Y-12145900D02*
X14120700Y-12288900D01*
X14120700Y-12145900D02*
X13977700Y-12288900D01*
X14049200Y-12145900D02*
X14049200Y-12288900D01*
X13977700Y-12217400D02*
X14120700Y-12217400D01*
X13977700Y-13415900D02*
X14120700Y-13558900D01*
X14120700Y-13415900D02*
X13977700Y-13558900D01*
X14049200Y-13415900D02*
X14049200Y-13558900D01*
X13977700Y-13487400D02*
X14120700Y-13487400D01*
X13939200Y-4519400D02*
X14119200Y-4699400D01*
X14119200Y-4519400D02*
X13939200Y-4699400D01*
X14092840Y-4673040D02*
X14092840Y-4545760D01*
X13965560Y-4545760D01*
X13965560Y-4673040D01*
X14092840Y-4673040D01*
X13939200Y-7059400D02*
X14119200Y-7239400D01*
X14119200Y-7059400D02*
X13939200Y-7239400D01*
X14092840Y-7213040D02*
X14092840Y-7085760D01*
X13965560Y-7085760D01*
X13965560Y-7213040D01*
X14092840Y-7213040D01*
X13939200Y-9599400D02*
X14119200Y-9779400D01*
X14119200Y-9599400D02*
X13939200Y-9779400D01*
X14092840Y-9753040D02*
X14092840Y-9625760D01*
X13965560Y-9625760D01*
X13965560Y-9753040D01*
X14092840Y-9753040D01*
X14989200Y-4519400D02*
X15169200Y-4699400D01*
X15169200Y-4519400D02*
X14989200Y-4699400D01*
X15142840Y-4673040D02*
X15142840Y-4545760D01*
X15015560Y-4545760D01*
X15015560Y-4673040D01*
X15142840Y-4673040D01*
X14989200Y-7059400D02*
X15169200Y-7239400D01*
X15169200Y-7059400D02*
X14989200Y-7239400D01*
X15142840Y-7213040D02*
X15142840Y-7085760D01*
X15015560Y-7085760D01*
X15015560Y-7213040D01*
X15142840Y-7213040D01*
X14989200Y-9599400D02*
X15169200Y-9779400D01*
X15169200Y-9599400D02*
X14989200Y-9779400D01*
X15142840Y-9753040D02*
X15142840Y-9625760D01*
X15015560Y-9625760D01*
X15015560Y-9753040D01*
X15142840Y-9753040D01*
D13*
X13423628Y-14593114D02*
X13423628Y-14293114D01*
X13495057Y-14293114D01*
X13537914Y-14307400D01*
X13566486Y-14335971D01*
X13580771Y-14364543D01*
X13595057Y-14421686D01*
X13595057Y-14464543D01*
X13580771Y-14521686D01*
X13566486Y-14550257D01*
X13537914Y-14578829D01*
X13495057Y-14593114D01*
X13423628Y-14593114D01*
X13723628Y-14593114D02*
X13723628Y-14393114D01*
X13723628Y-14450257D02*
X13737914Y-14421686D01*
X13752200Y-14407400D01*
X13780771Y-14393114D01*
X13809343Y-14393114D01*
X13909343Y-14593114D02*
X13909343Y-14393114D01*
X13909343Y-14293114D02*
X13895057Y-14307400D01*
X13909343Y-14321686D01*
X13923628Y-14307400D01*
X13909343Y-14293114D01*
X13909343Y-14321686D01*
X14095057Y-14593114D02*
X14066486Y-14578829D01*
X14052200Y-14550257D01*
X14052200Y-14293114D01*
X14252200Y-14593114D02*
X14223628Y-14578829D01*
X14209343Y-14550257D01*
X14209343Y-14293114D01*
X14595057Y-14593114D02*
X14595057Y-14293114D01*
X14695057Y-14507400D01*
X14795057Y-14293114D01*
X14795057Y-14593114D01*
X15066486Y-14593114D02*
X15066486Y-14435971D01*
X15052200Y-14407400D01*
X15023628Y-14393114D01*
X14966486Y-14393114D01*
X14937914Y-14407400D01*
X15066486Y-14578829D02*
X15037914Y-14593114D01*
X14966486Y-14593114D01*
X14937914Y-14578829D01*
X14923628Y-14550257D01*
X14923628Y-14521686D01*
X14937914Y-14493114D01*
X14966486Y-14478829D01*
X15037914Y-14478829D01*
X15066486Y-14464543D01*
X15209343Y-14393114D02*
X15209343Y-14693114D01*
X15209343Y-14407400D02*
X15237914Y-14393114D01*
X15295057Y-14393114D01*
X15323628Y-14407400D01*
X15337914Y-14421686D01*
X15352200Y-14450257D01*
X15352200Y-14535971D01*
X15337914Y-14564543D01*
X15323628Y-14578829D01*
X15295057Y-14593114D01*
X15237914Y-14593114D01*
X15209343Y-14578829D01*
X15480771Y-14564543D02*
X15495057Y-14578829D01*
X15480771Y-14593114D01*
X15466486Y-14578829D01*
X15480771Y-14564543D01*
X15480771Y-14593114D01*
X15480771Y-14407400D02*
X15495057Y-14421686D01*
X15480771Y-14435971D01*
X15466486Y-14421686D01*
X15480771Y-14407400D01*
X15480771Y-14435971D01*
X13070920Y-15046760D02*
X13152200Y-15128040D01*
X13152200Y-15046760D02*
X13070920Y-15128040D01*
X13480771Y-14923114D02*
X13509343Y-14923114D01*
X13537914Y-14937400D01*
X13552200Y-14951686D01*
X13566486Y-14980257D01*
X13580771Y-15037400D01*
X13580771Y-15108829D01*
X13566486Y-15165971D01*
X13552200Y-15194543D01*
X13537914Y-15208829D01*
X13509343Y-15223114D01*
X13480771Y-15223114D01*
X13452200Y-15208829D01*
X13437914Y-15194543D01*
X13423628Y-15165971D01*
X13409343Y-15108829D01*
X13409343Y-15037400D01*
X13423628Y-14980257D01*
X13437914Y-14951686D01*
X13452200Y-14937400D01*
X13480771Y-14923114D01*
X13709343Y-15194543D02*
X13723628Y-15208829D01*
X13709343Y-15223114D01*
X13695057Y-15208829D01*
X13709343Y-15194543D01*
X13709343Y-15223114D01*
X13895057Y-15051686D02*
X13866486Y-15037400D01*
X13852200Y-15023114D01*
X13837914Y-14994543D01*
X13837914Y-14980257D01*
X13852200Y-14951686D01*
X13866486Y-14937400D01*
X13895057Y-14923114D01*
X13952200Y-14923114D01*
X13980771Y-14937400D01*
X13995057Y-14951686D01*
X14009343Y-14980257D01*
X14009343Y-14994543D01*
X13995057Y-15023114D01*
X13980771Y-15037400D01*
X13952200Y-15051686D01*
X13895057Y-15051686D01*
X13866486Y-15065971D01*
X13852200Y-15080257D01*
X13837914Y-15108829D01*
X13837914Y-15165971D01*
X13852200Y-15194543D01*
X13866486Y-15208829D01*
X13895057Y-15223114D01*
X13952200Y-15223114D01*
X13980771Y-15208829D01*
X13995057Y-15194543D01*
X14009343Y-15165971D01*
X14009343Y-15108829D01*
X13995057Y-15080257D01*
X13980771Y-15065971D01*
X13952200Y-15051686D01*
X14295057Y-15223114D02*
X14123628Y-15223114D01*
X14209343Y-15223114D02*
X14209343Y-14923114D01*
X14180771Y-14965971D01*
X14152200Y-14994543D01*
X14123628Y-15008829D01*
X14423628Y-15223114D02*
X14423628Y-15023114D01*
X14423628Y-15051686D02*
X14437914Y-15037400D01*
X14466486Y-15023114D01*
X14509343Y-15023114D01*
X14537914Y-15037400D01*
X14552200Y-15065971D01*
X14552200Y-15223114D01*
X14552200Y-15065971D02*
X14566486Y-15037400D01*
X14595057Y-15023114D01*
X14637914Y-15023114D01*
X14666486Y-15037400D01*
X14680771Y-15065971D01*
X14680771Y-15223114D01*
X14823628Y-15223114D02*
X14823628Y-15023114D01*
X14823628Y-15051686D02*
X14837914Y-15037400D01*
X14866486Y-15023114D01*
X14909343Y-15023114D01*
X14937914Y-15037400D01*
X14952200Y-15065971D01*
X14952200Y-15223114D01*
X14952200Y-15065971D02*
X14966486Y-15037400D01*
X14995057Y-15023114D01*
X15037914Y-15023114D01*
X15066486Y-15037400D01*
X15080771Y-15065971D01*
X15080771Y-15223114D01*
X15666486Y-14908829D02*
X15409343Y-15294543D01*
X16052200Y-14923114D02*
X16080771Y-14923114D01*
X16109343Y-14937400D01*
X16123628Y-14951686D01*
X16137914Y-14980257D01*
X16152200Y-15037400D01*
X16152200Y-15108829D01*
X16137914Y-15165971D01*
X16123628Y-15194543D01*
X16109343Y-15208829D01*
X16080771Y-15223114D01*
X16052200Y-15223114D01*
X16023628Y-15208829D01*
X16009343Y-15194543D01*
X15995057Y-15165971D01*
X15980771Y-15108829D01*
X15980771Y-15037400D01*
X15995057Y-14980257D01*
X16009343Y-14951686D01*
X16023628Y-14937400D01*
X16052200Y-14923114D01*
X16280771Y-15194543D02*
X16295057Y-15208829D01*
X16280771Y-15223114D01*
X16266486Y-15208829D01*
X16280771Y-15194543D01*
X16280771Y-15223114D01*
X16480771Y-14923114D02*
X16509343Y-14923114D01*
X16537914Y-14937400D01*
X16552200Y-14951686D01*
X16566485Y-14980257D01*
X16580771Y-15037400D01*
X16580771Y-15108829D01*
X16566485Y-15165971D01*
X16552200Y-15194543D01*
X16537914Y-15208829D01*
X16509343Y-15223114D01*
X16480771Y-15223114D01*
X16452200Y-15208829D01*
X16437914Y-15194543D01*
X16423628Y-15165971D01*
X16409343Y-15108829D01*
X16409343Y-15037400D01*
X16423628Y-14980257D01*
X16437914Y-14951686D01*
X16452200Y-14937400D01*
X16480771Y-14923114D01*
X16680771Y-14923114D02*
X16866486Y-14923114D01*
X16766485Y-15037400D01*
X16809343Y-15037400D01*
X16837914Y-15051686D01*
X16852200Y-15065971D01*
X16866486Y-15094543D01*
X16866486Y-15165971D01*
X16852200Y-15194543D01*
X16837914Y-15208829D01*
X16809343Y-15223114D01*
X16723628Y-15223114D01*
X16695057Y-15208829D01*
X16680771Y-15194543D01*
X16980771Y-14951686D02*
X16995057Y-14937400D01*
X17023628Y-14923114D01*
X17095057Y-14923114D01*
X17123628Y-14937400D01*
X17137914Y-14951686D01*
X17152200Y-14980257D01*
X17152200Y-15008829D01*
X17137914Y-15051686D01*
X16966486Y-15223114D01*
X17152200Y-15223114D01*
X17266486Y-14923114D02*
X17266486Y-14980257D01*
X17380771Y-14923114D02*
X17380771Y-14980257D01*
X17823628Y-15337400D02*
X17809343Y-15323114D01*
X17780771Y-15280257D01*
X17766486Y-15251686D01*
X17752200Y-15208829D01*
X17737914Y-15137400D01*
X17737914Y-15080257D01*
X17752200Y-15008829D01*
X17766486Y-14965971D01*
X17780771Y-14937400D01*
X17809343Y-14894543D01*
X17823628Y-14880257D01*
X18066486Y-15023114D02*
X18066486Y-15223114D01*
X17995057Y-14908829D02*
X17923628Y-15123114D01*
X18109343Y-15123114D01*
X18209343Y-14951686D02*
X18223628Y-14937400D01*
X18252200Y-14923114D01*
X18323628Y-14923114D01*
X18352200Y-14937400D01*
X18366486Y-14951686D01*
X18380771Y-14980257D01*
X18380771Y-15008829D01*
X18366486Y-15051686D01*
X18195057Y-15223114D01*
X18380771Y-15223114D01*
X18737914Y-15223114D02*
X18737914Y-14923114D01*
X18866486Y-15223114D02*
X18866486Y-15065971D01*
X18852200Y-15037400D01*
X18823628Y-15023114D01*
X18780771Y-15023114D01*
X18752200Y-15037400D01*
X18737914Y-15051686D01*
X19052200Y-15223114D02*
X19023628Y-15208829D01*
X19009343Y-15194543D01*
X18995057Y-15165971D01*
X18995057Y-15080257D01*
X19009343Y-15051686D01*
X19023628Y-15037400D01*
X19052200Y-15023114D01*
X19095057Y-15023114D01*
X19123628Y-15037400D01*
X19137914Y-15051686D01*
X19152200Y-15080257D01*
X19152200Y-15165971D01*
X19137914Y-15194543D01*
X19123628Y-15208829D01*
X19095057Y-15223114D01*
X19052200Y-15223114D01*
X19323628Y-15223114D02*
X19295057Y-15208829D01*
X19280771Y-15180257D01*
X19280771Y-14923114D01*
X19552200Y-15208829D02*
X19523629Y-15223114D01*
X19466486Y-15223114D01*
X19437914Y-15208829D01*
X19423629Y-15180257D01*
X19423629Y-15065971D01*
X19437914Y-15037400D01*
X19466486Y-15023114D01*
X19523629Y-15023114D01*
X19552200Y-15037400D01*
X19566486Y-15065971D01*
X19566486Y-15094543D01*
X19423629Y-15123114D01*
X19680771Y-15208829D02*
X19709343Y-15223114D01*
X19766486Y-15223114D01*
X19795057Y-15208829D01*
X19809343Y-15180257D01*
X19809343Y-15165971D01*
X19795057Y-15137400D01*
X19766486Y-15123114D01*
X19723629Y-15123114D01*
X19695057Y-15108829D01*
X19680771Y-15080257D01*
X19680771Y-15065971D01*
X19695057Y-15037400D01*
X19723629Y-15023114D01*
X19766486Y-15023114D01*
X19795057Y-15037400D01*
X19909343Y-15337400D02*
X19923629Y-15323114D01*
X19952200Y-15280257D01*
X19966486Y-15251686D01*
X19980771Y-15208829D01*
X19995057Y-15137400D01*
X19995057Y-15080257D01*
X19980771Y-15008829D01*
X19966486Y-14965971D01*
X19952200Y-14937400D01*
X19923629Y-14894543D01*
X19909343Y-14880257D01*
X13152200Y-15483400D02*
G75*
G03X13152200Y-15483400I-45500J0D01*
G01*
X13480771Y-15319114D02*
X13509343Y-15319114D01*
X13537914Y-15333400D01*
X13552200Y-15347686D01*
X13566486Y-15376257D01*
X13580771Y-15433400D01*
X13580771Y-15504829D01*
X13566486Y-15561971D01*
X13552200Y-15590543D01*
X13537914Y-15604829D01*
X13509343Y-15619114D01*
X13480771Y-15619114D01*
X13452200Y-15604829D01*
X13437914Y-15590543D01*
X13423628Y-15561971D01*
X13409343Y-15504829D01*
X13409343Y-15433400D01*
X13423628Y-15376257D01*
X13437914Y-15347686D01*
X13452200Y-15333400D01*
X13480771Y-15319114D01*
X13709343Y-15590543D02*
X13723628Y-15604829D01*
X13709343Y-15619114D01*
X13695057Y-15604829D01*
X13709343Y-15590543D01*
X13709343Y-15619114D01*
X13866486Y-15619114D02*
X13923628Y-15619114D01*
X13952200Y-15604829D01*
X13966486Y-15590543D01*
X13995057Y-15547686D01*
X14009343Y-15490543D01*
X14009343Y-15376257D01*
X13995057Y-15347686D01*
X13980771Y-15333400D01*
X13952200Y-15319114D01*
X13895057Y-15319114D01*
X13866486Y-15333400D01*
X13852200Y-15347686D01*
X13837914Y-15376257D01*
X13837914Y-15447686D01*
X13852200Y-15476257D01*
X13866486Y-15490543D01*
X13895057Y-15504829D01*
X13952200Y-15504829D01*
X13980771Y-15490543D01*
X13995057Y-15476257D01*
X14009343Y-15447686D01*
X14295057Y-15619114D02*
X14123628Y-15619114D01*
X14209343Y-15619114D02*
X14209343Y-15319114D01*
X14180771Y-15361971D01*
X14152200Y-15390543D01*
X14123628Y-15404829D01*
X14423628Y-15619114D02*
X14423628Y-15419114D01*
X14423628Y-15447686D02*
X14437914Y-15433400D01*
X14466486Y-15419114D01*
X14509343Y-15419114D01*
X14537914Y-15433400D01*
X14552200Y-15461971D01*
X14552200Y-15619114D01*
X14552200Y-15461971D02*
X14566486Y-15433400D01*
X14595057Y-15419114D01*
X14637914Y-15419114D01*
X14666486Y-15433400D01*
X14680771Y-15461971D01*
X14680771Y-15619114D01*
X14823628Y-15619114D02*
X14823628Y-15419114D01*
X14823628Y-15447686D02*
X14837914Y-15433400D01*
X14866486Y-15419114D01*
X14909343Y-15419114D01*
X14937914Y-15433400D01*
X14952200Y-15461971D01*
X14952200Y-15619114D01*
X14952200Y-15461971D02*
X14966486Y-15433400D01*
X14995057Y-15419114D01*
X15037914Y-15419114D01*
X15066486Y-15433400D01*
X15080771Y-15461971D01*
X15080771Y-15619114D01*
X15666486Y-15304829D02*
X15409343Y-15690543D01*
X16052200Y-15319114D02*
X16080771Y-15319114D01*
X16109343Y-15333400D01*
X16123628Y-15347686D01*
X16137914Y-15376257D01*
X16152200Y-15433400D01*
X16152200Y-15504829D01*
X16137914Y-15561971D01*
X16123628Y-15590543D01*
X16109343Y-15604829D01*
X16080771Y-15619114D01*
X16052200Y-15619114D01*
X16023628Y-15604829D01*
X16009343Y-15590543D01*
X15995057Y-15561971D01*
X15980771Y-15504829D01*
X15980771Y-15433400D01*
X15995057Y-15376257D01*
X16009343Y-15347686D01*
X16023628Y-15333400D01*
X16052200Y-15319114D01*
X16280771Y-15590543D02*
X16295057Y-15604829D01*
X16280771Y-15619114D01*
X16266486Y-15604829D01*
X16280771Y-15590543D01*
X16280771Y-15619114D01*
X16480771Y-15319114D02*
X16509343Y-15319114D01*
X16537914Y-15333400D01*
X16552200Y-15347686D01*
X16566485Y-15376257D01*
X16580771Y-15433400D01*
X16580771Y-15504829D01*
X16566485Y-15561971D01*
X16552200Y-15590543D01*
X16537914Y-15604829D01*
X16509343Y-15619114D01*
X16480771Y-15619114D01*
X16452200Y-15604829D01*
X16437914Y-15590543D01*
X16423628Y-15561971D01*
X16409343Y-15504829D01*
X16409343Y-15433400D01*
X16423628Y-15376257D01*
X16437914Y-15347686D01*
X16452200Y-15333400D01*
X16480771Y-15319114D01*
X16680771Y-15319114D02*
X16866486Y-15319114D01*
X16766485Y-15433400D01*
X16809343Y-15433400D01*
X16837914Y-15447686D01*
X16852200Y-15461971D01*
X16866486Y-15490543D01*
X16866486Y-15561971D01*
X16852200Y-15590543D01*
X16837914Y-15604829D01*
X16809343Y-15619114D01*
X16723628Y-15619114D01*
X16695057Y-15604829D01*
X16680771Y-15590543D01*
X17123628Y-15319114D02*
X17066486Y-15319114D01*
X17037914Y-15333400D01*
X17023628Y-15347686D01*
X16995057Y-15390543D01*
X16980771Y-15447686D01*
X16980771Y-15561971D01*
X16995057Y-15590543D01*
X17009343Y-15604829D01*
X17037914Y-15619114D01*
X17095057Y-15619114D01*
X17123628Y-15604829D01*
X17137914Y-15590543D01*
X17152200Y-15561971D01*
X17152200Y-15490543D01*
X17137914Y-15461971D01*
X17123628Y-15447686D01*
X17095057Y-15433400D01*
X17037914Y-15433400D01*
X17009343Y-15447686D01*
X16995057Y-15461971D01*
X16980771Y-15490543D01*
X17266486Y-15319114D02*
X17266486Y-15376257D01*
X17380771Y-15319114D02*
X17380771Y-15376257D01*
X17823628Y-15733400D02*
X17809343Y-15719114D01*
X17780771Y-15676257D01*
X17766486Y-15647686D01*
X17752200Y-15604829D01*
X17737914Y-15533400D01*
X17737914Y-15476257D01*
X17752200Y-15404829D01*
X17766486Y-15361971D01*
X17780771Y-15333400D01*
X17809343Y-15290543D01*
X17823628Y-15276257D01*
X18095057Y-15619114D02*
X17923628Y-15619114D01*
X18009343Y-15619114D02*
X18009343Y-15319114D01*
X17980771Y-15361971D01*
X17952200Y-15390543D01*
X17923628Y-15404829D01*
X18280771Y-15319114D02*
X18309343Y-15319114D01*
X18337914Y-15333400D01*
X18352200Y-15347686D01*
X18366486Y-15376257D01*
X18380771Y-15433400D01*
X18380771Y-15504829D01*
X18366486Y-15561971D01*
X18352200Y-15590543D01*
X18337914Y-15604829D01*
X18309343Y-15619114D01*
X18280771Y-15619114D01*
X18252200Y-15604829D01*
X18237914Y-15590543D01*
X18223628Y-15561971D01*
X18209343Y-15504829D01*
X18209343Y-15433400D01*
X18223628Y-15376257D01*
X18237914Y-15347686D01*
X18252200Y-15333400D01*
X18280771Y-15319114D01*
X18737914Y-15619114D02*
X18737914Y-15319114D01*
X18866486Y-15619114D02*
X18866486Y-15461971D01*
X18852200Y-15433400D01*
X18823628Y-15419114D01*
X18780771Y-15419114D01*
X18752200Y-15433400D01*
X18737914Y-15447686D01*
X19052200Y-15619114D02*
X19023628Y-15604829D01*
X19009343Y-15590543D01*
X18995057Y-15561971D01*
X18995057Y-15476257D01*
X19009343Y-15447686D01*
X19023628Y-15433400D01*
X19052200Y-15419114D01*
X19095057Y-15419114D01*
X19123628Y-15433400D01*
X19137914Y-15447686D01*
X19152200Y-15476257D01*
X19152200Y-15561971D01*
X19137914Y-15590543D01*
X19123628Y-15604829D01*
X19095057Y-15619114D01*
X19052200Y-15619114D01*
X19323628Y-15619114D02*
X19295057Y-15604829D01*
X19280771Y-15576257D01*
X19280771Y-15319114D01*
X19552200Y-15604829D02*
X19523629Y-15619114D01*
X19466486Y-15619114D01*
X19437914Y-15604829D01*
X19423629Y-15576257D01*
X19423629Y-15461971D01*
X19437914Y-15433400D01*
X19466486Y-15419114D01*
X19523629Y-15419114D01*
X19552200Y-15433400D01*
X19566486Y-15461971D01*
X19566486Y-15490543D01*
X19423629Y-15519114D01*
X19680771Y-15604829D02*
X19709343Y-15619114D01*
X19766486Y-15619114D01*
X19795057Y-15604829D01*
X19809343Y-15576257D01*
X19809343Y-15561971D01*
X19795057Y-15533400D01*
X19766486Y-15519114D01*
X19723629Y-15519114D01*
X19695057Y-15504829D01*
X19680771Y-15476257D01*
X19680771Y-15461971D01*
X19695057Y-15433400D01*
X19723629Y-15419114D01*
X19766486Y-15419114D01*
X19795057Y-15433400D01*
X19909343Y-15733400D02*
X19923629Y-15719114D01*
X19952200Y-15676257D01*
X19966486Y-15647686D01*
X19980771Y-15604829D01*
X19995057Y-15533400D01*
X19995057Y-15476257D01*
X19980771Y-15404829D01*
X19966486Y-15361971D01*
X19952200Y-15333400D01*
X19923629Y-15290543D01*
X19909343Y-15276257D01*
X13102200Y-15829400D02*
X13102200Y-15929400D01*
X13052200Y-15879400D02*
X13152200Y-15879400D01*
X13580771Y-16015114D02*
X13409343Y-16015114D01*
X13495057Y-16015114D02*
X13495057Y-15715114D01*
X13466486Y-15757971D01*
X13437914Y-15786543D01*
X13409343Y-15800829D01*
X13709343Y-15986543D02*
X13723628Y-16000829D01*
X13709343Y-16015114D01*
X13695057Y-16000829D01*
X13709343Y-15986543D01*
X13709343Y-16015114D01*
X13909343Y-15715114D02*
X13937914Y-15715114D01*
X13966486Y-15729400D01*
X13980771Y-15743686D01*
X13995057Y-15772257D01*
X14009343Y-15829400D01*
X14009343Y-15900829D01*
X13995057Y-15957971D01*
X13980771Y-15986543D01*
X13966486Y-16000829D01*
X13937914Y-16015114D01*
X13909343Y-16015114D01*
X13880771Y-16000829D01*
X13866486Y-15986543D01*
X13852200Y-15957971D01*
X13837914Y-15900829D01*
X13837914Y-15829400D01*
X13852200Y-15772257D01*
X13866486Y-15743686D01*
X13880771Y-15729400D01*
X13909343Y-15715114D01*
X14195057Y-15715114D02*
X14223628Y-15715114D01*
X14252200Y-15729400D01*
X14266486Y-15743686D01*
X14280771Y-15772257D01*
X14295057Y-15829400D01*
X14295057Y-15900829D01*
X14280771Y-15957971D01*
X14266486Y-15986543D01*
X14252200Y-16000829D01*
X14223628Y-16015114D01*
X14195057Y-16015114D01*
X14166486Y-16000829D01*
X14152200Y-15986543D01*
X14137914Y-15957971D01*
X14123628Y-15900829D01*
X14123628Y-15829400D01*
X14137914Y-15772257D01*
X14152200Y-15743686D01*
X14166486Y-15729400D01*
X14195057Y-15715114D01*
X14423628Y-16015114D02*
X14423628Y-15815114D01*
X14423628Y-15843686D02*
X14437914Y-15829400D01*
X14466486Y-15815114D01*
X14509343Y-15815114D01*
X14537914Y-15829400D01*
X14552200Y-15857971D01*
X14552200Y-16015114D01*
X14552200Y-15857971D02*
X14566486Y-15829400D01*
X14595057Y-15815114D01*
X14637914Y-15815114D01*
X14666486Y-15829400D01*
X14680771Y-15857971D01*
X14680771Y-16015114D01*
X14823628Y-16015114D02*
X14823628Y-15815114D01*
X14823628Y-15843686D02*
X14837914Y-15829400D01*
X14866486Y-15815114D01*
X14909343Y-15815114D01*
X14937914Y-15829400D01*
X14952200Y-15857971D01*
X14952200Y-16015114D01*
X14952200Y-15857971D02*
X14966486Y-15829400D01*
X14995057Y-15815114D01*
X15037914Y-15815114D01*
X15066486Y-15829400D01*
X15080771Y-15857971D01*
X15080771Y-16015114D01*
X15666486Y-15700829D02*
X15409343Y-16086543D01*
X16052200Y-15715114D02*
X16080771Y-15715114D01*
X16109343Y-15729400D01*
X16123628Y-15743686D01*
X16137914Y-15772257D01*
X16152200Y-15829400D01*
X16152200Y-15900829D01*
X16137914Y-15957971D01*
X16123628Y-15986543D01*
X16109343Y-16000829D01*
X16080771Y-16015114D01*
X16052200Y-16015114D01*
X16023628Y-16000829D01*
X16009343Y-15986543D01*
X15995057Y-15957971D01*
X15980771Y-15900829D01*
X15980771Y-15829400D01*
X15995057Y-15772257D01*
X16009343Y-15743686D01*
X16023628Y-15729400D01*
X16052200Y-15715114D01*
X16280771Y-15986543D02*
X16295057Y-16000829D01*
X16280771Y-16015114D01*
X16266486Y-16000829D01*
X16280771Y-15986543D01*
X16280771Y-16015114D01*
X16480771Y-15715114D02*
X16509343Y-15715114D01*
X16537914Y-15729400D01*
X16552200Y-15743686D01*
X16566485Y-15772257D01*
X16580771Y-15829400D01*
X16580771Y-15900829D01*
X16566485Y-15957971D01*
X16552200Y-15986543D01*
X16537914Y-16000829D01*
X16509343Y-16015114D01*
X16480771Y-16015114D01*
X16452200Y-16000829D01*
X16437914Y-15986543D01*
X16423628Y-15957971D01*
X16409343Y-15900829D01*
X16409343Y-15829400D01*
X16423628Y-15772257D01*
X16437914Y-15743686D01*
X16452200Y-15729400D01*
X16480771Y-15715114D01*
X16680771Y-15715114D02*
X16866486Y-15715114D01*
X16766485Y-15829400D01*
X16809343Y-15829400D01*
X16837914Y-15843686D01*
X16852200Y-15857971D01*
X16866486Y-15886543D01*
X16866486Y-15957971D01*
X16852200Y-15986543D01*
X16837914Y-16000829D01*
X16809343Y-16015114D01*
X16723628Y-16015114D01*
X16695057Y-16000829D01*
X16680771Y-15986543D01*
X17009343Y-16015114D02*
X17066486Y-16015114D01*
X17095057Y-16000829D01*
X17109343Y-15986543D01*
X17137914Y-15943686D01*
X17152200Y-15886543D01*
X17152200Y-15772257D01*
X17137914Y-15743686D01*
X17123628Y-15729400D01*
X17095057Y-15715114D01*
X17037914Y-15715114D01*
X17009343Y-15729400D01*
X16995057Y-15743686D01*
X16980771Y-15772257D01*
X16980771Y-15843686D01*
X16995057Y-15872257D01*
X17009343Y-15886543D01*
X17037914Y-15900829D01*
X17095057Y-15900829D01*
X17123628Y-15886543D01*
X17137914Y-15872257D01*
X17152200Y-15843686D01*
X17266486Y-15715114D02*
X17266486Y-15772257D01*
X17380771Y-15715114D02*
X17380771Y-15772257D01*
X17823628Y-16129400D02*
X17809343Y-16115114D01*
X17780771Y-16072257D01*
X17766486Y-16043686D01*
X17752200Y-16000829D01*
X17737914Y-15929400D01*
X17737914Y-15872257D01*
X17752200Y-15800829D01*
X17766486Y-15757971D01*
X17780771Y-15729400D01*
X17809343Y-15686543D01*
X17823628Y-15672257D01*
X17952200Y-16015114D02*
X18009343Y-16015114D01*
X18037914Y-16000829D01*
X18052200Y-15986543D01*
X18080771Y-15943686D01*
X18095057Y-15886543D01*
X18095057Y-15772257D01*
X18080771Y-15743686D01*
X18066486Y-15729400D01*
X18037914Y-15715114D01*
X17980771Y-15715114D01*
X17952200Y-15729400D01*
X17937914Y-15743686D01*
X17923628Y-15772257D01*
X17923628Y-15843686D01*
X17937914Y-15872257D01*
X17952200Y-15886543D01*
X17980771Y-15900829D01*
X18037914Y-15900829D01*
X18066486Y-15886543D01*
X18080771Y-15872257D01*
X18095057Y-15843686D01*
X18452200Y-16015114D02*
X18452200Y-15715114D01*
X18580771Y-16015114D02*
X18580771Y-15857971D01*
X18566486Y-15829400D01*
X18537914Y-15815114D01*
X18495057Y-15815114D01*
X18466486Y-15829400D01*
X18452200Y-15843686D01*
X18766486Y-16015114D02*
X18737914Y-16000829D01*
X18723628Y-15986543D01*
X18709343Y-15957971D01*
X18709343Y-15872257D01*
X18723628Y-15843686D01*
X18737914Y-15829400D01*
X18766486Y-15815114D01*
X18809343Y-15815114D01*
X18837914Y-15829400D01*
X18852200Y-15843686D01*
X18866486Y-15872257D01*
X18866486Y-15957971D01*
X18852200Y-15986543D01*
X18837914Y-16000829D01*
X18809343Y-16015114D01*
X18766486Y-16015114D01*
X19037914Y-16015114D02*
X19009343Y-16000829D01*
X18995057Y-15972257D01*
X18995057Y-15715114D01*
X19266486Y-16000829D02*
X19237914Y-16015114D01*
X19180771Y-16015114D01*
X19152200Y-16000829D01*
X19137914Y-15972257D01*
X19137914Y-15857971D01*
X19152200Y-15829400D01*
X19180771Y-15815114D01*
X19237914Y-15815114D01*
X19266486Y-15829400D01*
X19280771Y-15857971D01*
X19280771Y-15886543D01*
X19137914Y-15915114D01*
X19395057Y-16000829D02*
X19423629Y-16015114D01*
X19480771Y-16015114D01*
X19509343Y-16000829D01*
X19523629Y-15972257D01*
X19523629Y-15957971D01*
X19509343Y-15929400D01*
X19480771Y-15915114D01*
X19437914Y-15915114D01*
X19409343Y-15900829D01*
X19395057Y-15872257D01*
X19395057Y-15857971D01*
X19409343Y-15829400D01*
X19437914Y-15815114D01*
X19480771Y-15815114D01*
X19509343Y-15829400D01*
X19623628Y-16129400D02*
X19637914Y-16115114D01*
X19666486Y-16072257D01*
X19680771Y-16043686D01*
X19695057Y-16000829D01*
X19709343Y-15929400D01*
X19709343Y-15872257D01*
X19695057Y-15800829D01*
X19680771Y-15757971D01*
X19666486Y-15729400D01*
X19637914Y-15686543D01*
X19623628Y-15672257D01*
X13137321Y-16311321D02*
X13137321Y-16239479D01*
X13065478Y-16239479D01*
X13065478Y-16311321D01*
X13137321Y-16311321D01*
X13580771Y-16411114D02*
X13409343Y-16411114D01*
X13495057Y-16411114D02*
X13495057Y-16111114D01*
X13466486Y-16153971D01*
X13437914Y-16182543D01*
X13409343Y-16196829D01*
X13709343Y-16382543D02*
X13723628Y-16396829D01*
X13709343Y-16411114D01*
X13695057Y-16396829D01*
X13709343Y-16382543D01*
X13709343Y-16411114D01*
X13909343Y-16111114D02*
X13937914Y-16111114D01*
X13966486Y-16125400D01*
X13980771Y-16139686D01*
X13995057Y-16168257D01*
X14009343Y-16225400D01*
X14009343Y-16296829D01*
X13995057Y-16353971D01*
X13980771Y-16382543D01*
X13966486Y-16396829D01*
X13937914Y-16411114D01*
X13909343Y-16411114D01*
X13880771Y-16396829D01*
X13866486Y-16382543D01*
X13852200Y-16353971D01*
X13837914Y-16296829D01*
X13837914Y-16225400D01*
X13852200Y-16168257D01*
X13866486Y-16139686D01*
X13880771Y-16125400D01*
X13909343Y-16111114D01*
X14123628Y-16139686D02*
X14137914Y-16125400D01*
X14166486Y-16111114D01*
X14237914Y-16111114D01*
X14266486Y-16125400D01*
X14280771Y-16139686D01*
X14295057Y-16168257D01*
X14295057Y-16196829D01*
X14280771Y-16239686D01*
X14109343Y-16411114D01*
X14295057Y-16411114D01*
X14423628Y-16411114D02*
X14423628Y-16211114D01*
X14423628Y-16239686D02*
X14437914Y-16225400D01*
X14466486Y-16211114D01*
X14509343Y-16211114D01*
X14537914Y-16225400D01*
X14552200Y-16253971D01*
X14552200Y-16411114D01*
X14552200Y-16253971D02*
X14566486Y-16225400D01*
X14595057Y-16211114D01*
X14637914Y-16211114D01*
X14666486Y-16225400D01*
X14680771Y-16253971D01*
X14680771Y-16411114D01*
X14823628Y-16411114D02*
X14823628Y-16211114D01*
X14823628Y-16239686D02*
X14837914Y-16225400D01*
X14866486Y-16211114D01*
X14909343Y-16211114D01*
X14937914Y-16225400D01*
X14952200Y-16253971D01*
X14952200Y-16411114D01*
X14952200Y-16253971D02*
X14966486Y-16225400D01*
X14995057Y-16211114D01*
X15037914Y-16211114D01*
X15066486Y-16225400D01*
X15080771Y-16253971D01*
X15080771Y-16411114D01*
X15666486Y-16096829D02*
X15409343Y-16482543D01*
X16052200Y-16111114D02*
X16080771Y-16111114D01*
X16109343Y-16125400D01*
X16123628Y-16139686D01*
X16137914Y-16168257D01*
X16152200Y-16225400D01*
X16152200Y-16296829D01*
X16137914Y-16353971D01*
X16123628Y-16382543D01*
X16109343Y-16396829D01*
X16080771Y-16411114D01*
X16052200Y-16411114D01*
X16023628Y-16396829D01*
X16009343Y-16382543D01*
X15995057Y-16353971D01*
X15980771Y-16296829D01*
X15980771Y-16225400D01*
X15995057Y-16168257D01*
X16009343Y-16139686D01*
X16023628Y-16125400D01*
X16052200Y-16111114D01*
X16280771Y-16382543D02*
X16295057Y-16396829D01*
X16280771Y-16411114D01*
X16266486Y-16396829D01*
X16280771Y-16382543D01*
X16280771Y-16411114D01*
X16480771Y-16111114D02*
X16509343Y-16111114D01*
X16537914Y-16125400D01*
X16552200Y-16139686D01*
X16566485Y-16168257D01*
X16580771Y-16225400D01*
X16580771Y-16296829D01*
X16566485Y-16353971D01*
X16552200Y-16382543D01*
X16537914Y-16396829D01*
X16509343Y-16411114D01*
X16480771Y-16411114D01*
X16452200Y-16396829D01*
X16437914Y-16382543D01*
X16423628Y-16353971D01*
X16409343Y-16296829D01*
X16409343Y-16225400D01*
X16423628Y-16168257D01*
X16437914Y-16139686D01*
X16452200Y-16125400D01*
X16480771Y-16111114D01*
X16837914Y-16211114D02*
X16837914Y-16411114D01*
X16766485Y-16096829D02*
X16695057Y-16311114D01*
X16880771Y-16311114D01*
X17052200Y-16111114D02*
X17080771Y-16111114D01*
X17109343Y-16125400D01*
X17123628Y-16139686D01*
X17137914Y-16168257D01*
X17152200Y-16225400D01*
X17152200Y-16296829D01*
X17137914Y-16353971D01*
X17123628Y-16382543D01*
X17109343Y-16396829D01*
X17080771Y-16411114D01*
X17052200Y-16411114D01*
X17023628Y-16396829D01*
X17009343Y-16382543D01*
X16995057Y-16353971D01*
X16980771Y-16296829D01*
X16980771Y-16225400D01*
X16995057Y-16168257D01*
X17009343Y-16139686D01*
X17023628Y-16125400D01*
X17052200Y-16111114D01*
X17266486Y-16111114D02*
X17266486Y-16168257D01*
X17380771Y-16111114D02*
X17380771Y-16168257D01*
X17823628Y-16525400D02*
X17809343Y-16511114D01*
X17780771Y-16468257D01*
X17766486Y-16439686D01*
X17752200Y-16396829D01*
X17737914Y-16325400D01*
X17737914Y-16268257D01*
X17752200Y-16196829D01*
X17766486Y-16153971D01*
X17780771Y-16125400D01*
X17809343Y-16082543D01*
X17823628Y-16068257D01*
X17923628Y-16139686D02*
X17937914Y-16125400D01*
X17966486Y-16111114D01*
X18037914Y-16111114D01*
X18066486Y-16125400D01*
X18080771Y-16139686D01*
X18095057Y-16168257D01*
X18095057Y-16196829D01*
X18080771Y-16239686D01*
X17909343Y-16411114D01*
X18095057Y-16411114D01*
X18452200Y-16411114D02*
X18452200Y-16111114D01*
X18580771Y-16411114D02*
X18580771Y-16253971D01*
X18566486Y-16225400D01*
X18537914Y-16211114D01*
X18495057Y-16211114D01*
X18466486Y-16225400D01*
X18452200Y-16239686D01*
X18766486Y-16411114D02*
X18737914Y-16396829D01*
X18723628Y-16382543D01*
X18709343Y-16353971D01*
X18709343Y-16268257D01*
X18723628Y-16239686D01*
X18737914Y-16225400D01*
X18766486Y-16211114D01*
X18809343Y-16211114D01*
X18837914Y-16225400D01*
X18852200Y-16239686D01*
X18866486Y-16268257D01*
X18866486Y-16353971D01*
X18852200Y-16382543D01*
X18837914Y-16396829D01*
X18809343Y-16411114D01*
X18766486Y-16411114D01*
X19037914Y-16411114D02*
X19009343Y-16396829D01*
X18995057Y-16368257D01*
X18995057Y-16111114D01*
X19266486Y-16396829D02*
X19237914Y-16411114D01*
X19180771Y-16411114D01*
X19152200Y-16396829D01*
X19137914Y-16368257D01*
X19137914Y-16253971D01*
X19152200Y-16225400D01*
X19180771Y-16211114D01*
X19237914Y-16211114D01*
X19266486Y-16225400D01*
X19280771Y-16253971D01*
X19280771Y-16282543D01*
X19137914Y-16311114D01*
X19395057Y-16396829D02*
X19423629Y-16411114D01*
X19480771Y-16411114D01*
X19509343Y-16396829D01*
X19523629Y-16368257D01*
X19523629Y-16353971D01*
X19509343Y-16325400D01*
X19480771Y-16311114D01*
X19437914Y-16311114D01*
X19409343Y-16296829D01*
X19395057Y-16268257D01*
X19395057Y-16253971D01*
X19409343Y-16225400D01*
X19437914Y-16211114D01*
X19480771Y-16211114D01*
X19509343Y-16225400D01*
X19623628Y-16525400D02*
X19637914Y-16511114D01*
X19666486Y-16468257D01*
X19680771Y-16439686D01*
X19695057Y-16396829D01*
X19709343Y-16325400D01*
X19709343Y-16268257D01*
X19695057Y-16196829D01*
X19680771Y-16153971D01*
X19666486Y-16125400D01*
X19637914Y-16082543D01*
X19623628Y-16068257D01*
X13091200Y-16732400D02*
X13152200Y-16671400D01*
X13091200Y-16610400D01*
X13030200Y-16671400D01*
X13091200Y-16732400D01*
X13580771Y-16807114D02*
X13409343Y-16807114D01*
X13495057Y-16807114D02*
X13495057Y-16507114D01*
X13466486Y-16549971D01*
X13437914Y-16578543D01*
X13409343Y-16592829D01*
X13709343Y-16778543D02*
X13723628Y-16792829D01*
X13709343Y-16807114D01*
X13695057Y-16792829D01*
X13709343Y-16778543D01*
X13709343Y-16807114D01*
X13837914Y-16535686D02*
X13852200Y-16521400D01*
X13880771Y-16507114D01*
X13952200Y-16507114D01*
X13980771Y-16521400D01*
X13995057Y-16535686D01*
X14009343Y-16564257D01*
X14009343Y-16592829D01*
X13995057Y-16635686D01*
X13823628Y-16807114D01*
X14009343Y-16807114D01*
X14123628Y-16535686D02*
X14137914Y-16521400D01*
X14166486Y-16507114D01*
X14237914Y-16507114D01*
X14266486Y-16521400D01*
X14280771Y-16535686D01*
X14295057Y-16564257D01*
X14295057Y-16592829D01*
X14280771Y-16635686D01*
X14109343Y-16807114D01*
X14295057Y-16807114D01*
X14423628Y-16807114D02*
X14423628Y-16607114D01*
X14423628Y-16635686D02*
X14437914Y-16621400D01*
X14466486Y-16607114D01*
X14509343Y-16607114D01*
X14537914Y-16621400D01*
X14552200Y-16649971D01*
X14552200Y-16807114D01*
X14552200Y-16649971D02*
X14566486Y-16621400D01*
X14595057Y-16607114D01*
X14637914Y-16607114D01*
X14666486Y-16621400D01*
X14680771Y-16649971D01*
X14680771Y-16807114D01*
X14823628Y-16807114D02*
X14823628Y-16607114D01*
X14823628Y-16635686D02*
X14837914Y-16621400D01*
X14866486Y-16607114D01*
X14909343Y-16607114D01*
X14937914Y-16621400D01*
X14952200Y-16649971D01*
X14952200Y-16807114D01*
X14952200Y-16649971D02*
X14966486Y-16621400D01*
X14995057Y-16607114D01*
X15037914Y-16607114D01*
X15066486Y-16621400D01*
X15080771Y-16649971D01*
X15080771Y-16807114D01*
X15666486Y-16492829D02*
X15409343Y-16878543D01*
X16052200Y-16507114D02*
X16080771Y-16507114D01*
X16109343Y-16521400D01*
X16123628Y-16535686D01*
X16137914Y-16564257D01*
X16152200Y-16621400D01*
X16152200Y-16692829D01*
X16137914Y-16749971D01*
X16123628Y-16778543D01*
X16109343Y-16792829D01*
X16080771Y-16807114D01*
X16052200Y-16807114D01*
X16023628Y-16792829D01*
X16009343Y-16778543D01*
X15995057Y-16749971D01*
X15980771Y-16692829D01*
X15980771Y-16621400D01*
X15995057Y-16564257D01*
X16009343Y-16535686D01*
X16023628Y-16521400D01*
X16052200Y-16507114D01*
X16280771Y-16778543D02*
X16295057Y-16792829D01*
X16280771Y-16807114D01*
X16266486Y-16792829D01*
X16280771Y-16778543D01*
X16280771Y-16807114D01*
X16480771Y-16507114D02*
X16509343Y-16507114D01*
X16537914Y-16521400D01*
X16552200Y-16535686D01*
X16566485Y-16564257D01*
X16580771Y-16621400D01*
X16580771Y-16692829D01*
X16566485Y-16749971D01*
X16552200Y-16778543D01*
X16537914Y-16792829D01*
X16509343Y-16807114D01*
X16480771Y-16807114D01*
X16452200Y-16792829D01*
X16437914Y-16778543D01*
X16423628Y-16749971D01*
X16409343Y-16692829D01*
X16409343Y-16621400D01*
X16423628Y-16564257D01*
X16437914Y-16535686D01*
X16452200Y-16521400D01*
X16480771Y-16507114D01*
X16837914Y-16607114D02*
X16837914Y-16807114D01*
X16766485Y-16492829D02*
X16695057Y-16707114D01*
X16880771Y-16707114D01*
X17037914Y-16635686D02*
X17009343Y-16621400D01*
X16995057Y-16607114D01*
X16980771Y-16578543D01*
X16980771Y-16564257D01*
X16995057Y-16535686D01*
X17009343Y-16521400D01*
X17037914Y-16507114D01*
X17095057Y-16507114D01*
X17123628Y-16521400D01*
X17137914Y-16535686D01*
X17152200Y-16564257D01*
X17152200Y-16578543D01*
X17137914Y-16607114D01*
X17123628Y-16621400D01*
X17095057Y-16635686D01*
X17037914Y-16635686D01*
X17009343Y-16649971D01*
X16995057Y-16664257D01*
X16980771Y-16692829D01*
X16980771Y-16749971D01*
X16995057Y-16778543D01*
X17009343Y-16792829D01*
X17037914Y-16807114D01*
X17095057Y-16807114D01*
X17123628Y-16792829D01*
X17137914Y-16778543D01*
X17152200Y-16749971D01*
X17152200Y-16692829D01*
X17137914Y-16664257D01*
X17123628Y-16649971D01*
X17095057Y-16635686D01*
X17266486Y-16507114D02*
X17266486Y-16564257D01*
X17380771Y-16507114D02*
X17380771Y-16564257D01*
X17823628Y-16921400D02*
X17809343Y-16907114D01*
X17780771Y-16864257D01*
X17766486Y-16835686D01*
X17752200Y-16792829D01*
X17737914Y-16721400D01*
X17737914Y-16664257D01*
X17752200Y-16592829D01*
X17766486Y-16549971D01*
X17780771Y-16521400D01*
X17809343Y-16478543D01*
X17823628Y-16464257D01*
X17923628Y-16535686D02*
X17937914Y-16521400D01*
X17966486Y-16507114D01*
X18037914Y-16507114D01*
X18066486Y-16521400D01*
X18080771Y-16535686D01*
X18095057Y-16564257D01*
X18095057Y-16592829D01*
X18080771Y-16635686D01*
X17909343Y-16807114D01*
X18095057Y-16807114D01*
X18452200Y-16807114D02*
X18452200Y-16507114D01*
X18580771Y-16807114D02*
X18580771Y-16649971D01*
X18566486Y-16621400D01*
X18537914Y-16607114D01*
X18495057Y-16607114D01*
X18466486Y-16621400D01*
X18452200Y-16635686D01*
X18766486Y-16807114D02*
X18737914Y-16792829D01*
X18723628Y-16778543D01*
X18709343Y-16749971D01*
X18709343Y-16664257D01*
X18723628Y-16635686D01*
X18737914Y-16621400D01*
X18766486Y-16607114D01*
X18809343Y-16607114D01*
X18837914Y-16621400D01*
X18852200Y-16635686D01*
X18866486Y-16664257D01*
X18866486Y-16749971D01*
X18852200Y-16778543D01*
X18837914Y-16792829D01*
X18809343Y-16807114D01*
X18766486Y-16807114D01*
X19037914Y-16807114D02*
X19009343Y-16792829D01*
X18995057Y-16764257D01*
X18995057Y-16507114D01*
X19266486Y-16792829D02*
X19237914Y-16807114D01*
X19180771Y-16807114D01*
X19152200Y-16792829D01*
X19137914Y-16764257D01*
X19137914Y-16649971D01*
X19152200Y-16621400D01*
X19180771Y-16607114D01*
X19237914Y-16607114D01*
X19266486Y-16621400D01*
X19280771Y-16649971D01*
X19280771Y-16678543D01*
X19137914Y-16707114D01*
X19395057Y-16792829D02*
X19423629Y-16807114D01*
X19480771Y-16807114D01*
X19509343Y-16792829D01*
X19523629Y-16764257D01*
X19523629Y-16749971D01*
X19509343Y-16721400D01*
X19480771Y-16707114D01*
X19437914Y-16707114D01*
X19409343Y-16692829D01*
X19395057Y-16664257D01*
X19395057Y-16649971D01*
X19409343Y-16621400D01*
X19437914Y-16607114D01*
X19480771Y-16607114D01*
X19509343Y-16621400D01*
X19623628Y-16921400D02*
X19637914Y-16907114D01*
X19666486Y-16864257D01*
X19680771Y-16835686D01*
X19695057Y-16792829D01*
X19709343Y-16721400D01*
X19709343Y-16664257D01*
X19695057Y-16592829D01*
X19680771Y-16549971D01*
X19666486Y-16521400D01*
X19637914Y-16478543D01*
X19623628Y-16464257D01*
X13010200Y-16996400D02*
X13152200Y-17138400D01*
X13152200Y-16996400D02*
X13010200Y-17138400D01*
X13152200Y-17067400D02*
G75*
G03X13152200Y-17067400I-71000J0D01*
G01*
X13580771Y-17203114D02*
X13409343Y-17203114D01*
X13495057Y-17203114D02*
X13495057Y-16903114D01*
X13466486Y-16945972D01*
X13437914Y-16974543D01*
X13409343Y-16988829D01*
X13709343Y-17174543D02*
X13723628Y-17188829D01*
X13709343Y-17203114D01*
X13695057Y-17188829D01*
X13709343Y-17174543D01*
X13709343Y-17203114D01*
X13980771Y-17003114D02*
X13980771Y-17203114D01*
X13909343Y-16888829D02*
X13837914Y-17103114D01*
X14023628Y-17103114D01*
X14123628Y-16931686D02*
X14137914Y-16917400D01*
X14166486Y-16903114D01*
X14237914Y-16903114D01*
X14266486Y-16917400D01*
X14280771Y-16931686D01*
X14295057Y-16960257D01*
X14295057Y-16988829D01*
X14280771Y-17031686D01*
X14109343Y-17203114D01*
X14295057Y-17203114D01*
X14423628Y-17203114D02*
X14423628Y-17003114D01*
X14423628Y-17031686D02*
X14437914Y-17017400D01*
X14466486Y-17003114D01*
X14509343Y-17003114D01*
X14537914Y-17017400D01*
X14552200Y-17045972D01*
X14552200Y-17203114D01*
X14552200Y-17045972D02*
X14566486Y-17017400D01*
X14595057Y-17003114D01*
X14637914Y-17003114D01*
X14666486Y-17017400D01*
X14680771Y-17045972D01*
X14680771Y-17203114D01*
X14823628Y-17203114D02*
X14823628Y-17003114D01*
X14823628Y-17031686D02*
X14837914Y-17017400D01*
X14866486Y-17003114D01*
X14909343Y-17003114D01*
X14937914Y-17017400D01*
X14952200Y-17045972D01*
X14952200Y-17203114D01*
X14952200Y-17045972D02*
X14966486Y-17017400D01*
X14995057Y-17003114D01*
X15037914Y-17003114D01*
X15066486Y-17017400D01*
X15080771Y-17045972D01*
X15080771Y-17203114D01*
X15666486Y-16888829D02*
X15409343Y-17274543D01*
X16052200Y-16903114D02*
X16080771Y-16903114D01*
X16109343Y-16917400D01*
X16123628Y-16931686D01*
X16137914Y-16960257D01*
X16152200Y-17017400D01*
X16152200Y-17088829D01*
X16137914Y-17145972D01*
X16123628Y-17174543D01*
X16109343Y-17188829D01*
X16080771Y-17203114D01*
X16052200Y-17203114D01*
X16023628Y-17188829D01*
X16009343Y-17174543D01*
X15995057Y-17145972D01*
X15980771Y-17088829D01*
X15980771Y-17017400D01*
X15995057Y-16960257D01*
X16009343Y-16931686D01*
X16023628Y-16917400D01*
X16052200Y-16903114D01*
X16280771Y-17174543D02*
X16295057Y-17188829D01*
X16280771Y-17203114D01*
X16266486Y-17188829D01*
X16280771Y-17174543D01*
X16280771Y-17203114D01*
X16480771Y-16903114D02*
X16509343Y-16903114D01*
X16537914Y-16917400D01*
X16552200Y-16931686D01*
X16566485Y-16960257D01*
X16580771Y-17017400D01*
X16580771Y-17088829D01*
X16566485Y-17145972D01*
X16552200Y-17174543D01*
X16537914Y-17188829D01*
X16509343Y-17203114D01*
X16480771Y-17203114D01*
X16452200Y-17188829D01*
X16437914Y-17174543D01*
X16423628Y-17145972D01*
X16409343Y-17088829D01*
X16409343Y-17017400D01*
X16423628Y-16960257D01*
X16437914Y-16931686D01*
X16452200Y-16917400D01*
X16480771Y-16903114D01*
X16852200Y-16903114D02*
X16709343Y-16903114D01*
X16695057Y-17045972D01*
X16709343Y-17031686D01*
X16737914Y-17017400D01*
X16809343Y-17017400D01*
X16837914Y-17031686D01*
X16852200Y-17045972D01*
X16866486Y-17074543D01*
X16866486Y-17145972D01*
X16852200Y-17174543D01*
X16837914Y-17188829D01*
X16809343Y-17203114D01*
X16737914Y-17203114D01*
X16709343Y-17188829D01*
X16695057Y-17174543D01*
X17123628Y-16903114D02*
X17066486Y-16903114D01*
X17037914Y-16917400D01*
X17023628Y-16931686D01*
X16995057Y-16974543D01*
X16980771Y-17031686D01*
X16980771Y-17145972D01*
X16995057Y-17174543D01*
X17009343Y-17188829D01*
X17037914Y-17203114D01*
X17095057Y-17203114D01*
X17123628Y-17188829D01*
X17137914Y-17174543D01*
X17152200Y-17145972D01*
X17152200Y-17074543D01*
X17137914Y-17045972D01*
X17123628Y-17031686D01*
X17095057Y-17017400D01*
X17037914Y-17017400D01*
X17009343Y-17031686D01*
X16995057Y-17045972D01*
X16980771Y-17074543D01*
X17266486Y-16903114D02*
X17266486Y-16960257D01*
X17380771Y-16903114D02*
X17380771Y-16960257D01*
X17823628Y-17317400D02*
X17809343Y-17303114D01*
X17780771Y-17260257D01*
X17766486Y-17231686D01*
X17752200Y-17188829D01*
X17737914Y-17117400D01*
X17737914Y-17060257D01*
X17752200Y-16988829D01*
X17766486Y-16945972D01*
X17780771Y-16917400D01*
X17809343Y-16874543D01*
X17823628Y-16860257D01*
X17923628Y-16931686D02*
X17937914Y-16917400D01*
X17966486Y-16903114D01*
X18037914Y-16903114D01*
X18066486Y-16917400D01*
X18080771Y-16931686D01*
X18095057Y-16960257D01*
X18095057Y-16988829D01*
X18080771Y-17031686D01*
X17909343Y-17203114D01*
X18095057Y-17203114D01*
X18452200Y-17203114D02*
X18452200Y-16903114D01*
X18580771Y-17203114D02*
X18580771Y-17045972D01*
X18566486Y-17017400D01*
X18537914Y-17003114D01*
X18495057Y-17003114D01*
X18466486Y-17017400D01*
X18452200Y-17031686D01*
X18766486Y-17203114D02*
X18737914Y-17188829D01*
X18723628Y-17174543D01*
X18709343Y-17145972D01*
X18709343Y-17060257D01*
X18723628Y-17031686D01*
X18737914Y-17017400D01*
X18766486Y-17003114D01*
X18809343Y-17003114D01*
X18837914Y-17017400D01*
X18852200Y-17031686D01*
X18866486Y-17060257D01*
X18866486Y-17145972D01*
X18852200Y-17174543D01*
X18837914Y-17188829D01*
X18809343Y-17203114D01*
X18766486Y-17203114D01*
X19037914Y-17203114D02*
X19009343Y-17188829D01*
X18995057Y-17160257D01*
X18995057Y-16903114D01*
X19266486Y-17188829D02*
X19237914Y-17203114D01*
X19180771Y-17203114D01*
X19152200Y-17188829D01*
X19137914Y-17160257D01*
X19137914Y-17045972D01*
X19152200Y-17017400D01*
X19180771Y-17003114D01*
X19237914Y-17003114D01*
X19266486Y-17017400D01*
X19280771Y-17045972D01*
X19280771Y-17074543D01*
X19137914Y-17103114D01*
X19395057Y-17188829D02*
X19423629Y-17203114D01*
X19480771Y-17203114D01*
X19509343Y-17188829D01*
X19523629Y-17160257D01*
X19523629Y-17145972D01*
X19509343Y-17117400D01*
X19480771Y-17103114D01*
X19437914Y-17103114D01*
X19409343Y-17088829D01*
X19395057Y-17060257D01*
X19395057Y-17045972D01*
X19409343Y-17017400D01*
X19437914Y-17003114D01*
X19480771Y-17003114D01*
X19509343Y-17017400D01*
X19623628Y-17317400D02*
X19637914Y-17303114D01*
X19666486Y-17260257D01*
X19680771Y-17231686D01*
X19695057Y-17188829D01*
X19709343Y-17117400D01*
X19709343Y-17060257D01*
X19695057Y-16988829D01*
X19680771Y-16945972D01*
X19666486Y-16917400D01*
X19637914Y-16874543D01*
X19623628Y-16860257D01*
X13009200Y-17391900D02*
X13152200Y-17534900D01*
X13152200Y-17391900D02*
X13009200Y-17534900D01*
X13080700Y-17391900D02*
X13080700Y-17534900D01*
X13009200Y-17463400D02*
X13152200Y-17463400D01*
X13580771Y-17599114D02*
X13409343Y-17599114D01*
X13495057Y-17599114D02*
X13495057Y-17299114D01*
X13466486Y-17341972D01*
X13437914Y-17370543D01*
X13409343Y-17384829D01*
X13709343Y-17570543D02*
X13723628Y-17584829D01*
X13709343Y-17599114D01*
X13695057Y-17584829D01*
X13709343Y-17570543D01*
X13709343Y-17599114D01*
X13980771Y-17399114D02*
X13980771Y-17599114D01*
X13909343Y-17284829D02*
X13837914Y-17499114D01*
X14023628Y-17499114D01*
X14109343Y-17299114D02*
X14295057Y-17299114D01*
X14195057Y-17413400D01*
X14237914Y-17413400D01*
X14266486Y-17427686D01*
X14280771Y-17441972D01*
X14295057Y-17470543D01*
X14295057Y-17541972D01*
X14280771Y-17570543D01*
X14266486Y-17584829D01*
X14237914Y-17599114D01*
X14152200Y-17599114D01*
X14123628Y-17584829D01*
X14109343Y-17570543D01*
X14423628Y-17599114D02*
X14423628Y-17399114D01*
X14423628Y-17427686D02*
X14437914Y-17413400D01*
X14466486Y-17399114D01*
X14509343Y-17399114D01*
X14537914Y-17413400D01*
X14552200Y-17441972D01*
X14552200Y-17599114D01*
X14552200Y-17441972D02*
X14566486Y-17413400D01*
X14595057Y-17399114D01*
X14637914Y-17399114D01*
X14666486Y-17413400D01*
X14680771Y-17441972D01*
X14680771Y-17599114D01*
X14823628Y-17599114D02*
X14823628Y-17399114D01*
X14823628Y-17427686D02*
X14837914Y-17413400D01*
X14866486Y-17399114D01*
X14909343Y-17399114D01*
X14937914Y-17413400D01*
X14952200Y-17441972D01*
X14952200Y-17599114D01*
X14952200Y-17441972D02*
X14966486Y-17413400D01*
X14995057Y-17399114D01*
X15037914Y-17399114D01*
X15066486Y-17413400D01*
X15080771Y-17441972D01*
X15080771Y-17599114D01*
X15666486Y-17284829D02*
X15409343Y-17670543D01*
X16052200Y-17299114D02*
X16080771Y-17299114D01*
X16109343Y-17313400D01*
X16123628Y-17327686D01*
X16137914Y-17356257D01*
X16152200Y-17413400D01*
X16152200Y-17484829D01*
X16137914Y-17541972D01*
X16123628Y-17570543D01*
X16109343Y-17584829D01*
X16080771Y-17599114D01*
X16052200Y-17599114D01*
X16023628Y-17584829D01*
X16009343Y-17570543D01*
X15995057Y-17541972D01*
X15980771Y-17484829D01*
X15980771Y-17413400D01*
X15995057Y-17356257D01*
X16009343Y-17327686D01*
X16023628Y-17313400D01*
X16052200Y-17299114D01*
X16280771Y-17570543D02*
X16295057Y-17584829D01*
X16280771Y-17599114D01*
X16266486Y-17584829D01*
X16280771Y-17570543D01*
X16280771Y-17599114D01*
X16480771Y-17299114D02*
X16509343Y-17299114D01*
X16537914Y-17313400D01*
X16552200Y-17327686D01*
X16566485Y-17356257D01*
X16580771Y-17413400D01*
X16580771Y-17484829D01*
X16566485Y-17541972D01*
X16552200Y-17570543D01*
X16537914Y-17584829D01*
X16509343Y-17599114D01*
X16480771Y-17599114D01*
X16452200Y-17584829D01*
X16437914Y-17570543D01*
X16423628Y-17541972D01*
X16409343Y-17484829D01*
X16409343Y-17413400D01*
X16423628Y-17356257D01*
X16437914Y-17327686D01*
X16452200Y-17313400D01*
X16480771Y-17299114D01*
X16852200Y-17299114D02*
X16709343Y-17299114D01*
X16695057Y-17441972D01*
X16709343Y-17427686D01*
X16737914Y-17413400D01*
X16809343Y-17413400D01*
X16837914Y-17427686D01*
X16852200Y-17441972D01*
X16866486Y-17470543D01*
X16866486Y-17541972D01*
X16852200Y-17570543D01*
X16837914Y-17584829D01*
X16809343Y-17599114D01*
X16737914Y-17599114D01*
X16709343Y-17584829D01*
X16695057Y-17570543D01*
X17123628Y-17299114D02*
X17066486Y-17299114D01*
X17037914Y-17313400D01*
X17023628Y-17327686D01*
X16995057Y-17370543D01*
X16980771Y-17427686D01*
X16980771Y-17541972D01*
X16995057Y-17570543D01*
X17009343Y-17584829D01*
X17037914Y-17599114D01*
X17095057Y-17599114D01*
X17123628Y-17584829D01*
X17137914Y-17570543D01*
X17152200Y-17541972D01*
X17152200Y-17470543D01*
X17137914Y-17441972D01*
X17123628Y-17427686D01*
X17095057Y-17413400D01*
X17037914Y-17413400D01*
X17009343Y-17427686D01*
X16995057Y-17441972D01*
X16980771Y-17470543D01*
X17266486Y-17299114D02*
X17266486Y-17356257D01*
X17380771Y-17299114D02*
X17380771Y-17356257D01*
X17823628Y-17713400D02*
X17809343Y-17699114D01*
X17780771Y-17656257D01*
X17766486Y-17627686D01*
X17752200Y-17584829D01*
X17737914Y-17513400D01*
X17737914Y-17456257D01*
X17752200Y-17384829D01*
X17766486Y-17341972D01*
X17780771Y-17313400D01*
X17809343Y-17270543D01*
X17823628Y-17256257D01*
X17923628Y-17327686D02*
X17937914Y-17313400D01*
X17966486Y-17299114D01*
X18037914Y-17299114D01*
X18066486Y-17313400D01*
X18080771Y-17327686D01*
X18095057Y-17356257D01*
X18095057Y-17384829D01*
X18080771Y-17427686D01*
X17909343Y-17599114D01*
X18095057Y-17599114D01*
X18452200Y-17599114D02*
X18452200Y-17299114D01*
X18580771Y-17599114D02*
X18580771Y-17441972D01*
X18566486Y-17413400D01*
X18537914Y-17399114D01*
X18495057Y-17399114D01*
X18466486Y-17413400D01*
X18452200Y-17427686D01*
X18766486Y-17599114D02*
X18737914Y-17584829D01*
X18723628Y-17570543D01*
X18709343Y-17541972D01*
X18709343Y-17456257D01*
X18723628Y-17427686D01*
X18737914Y-17413400D01*
X18766486Y-17399114D01*
X18809343Y-17399114D01*
X18837914Y-17413400D01*
X18852200Y-17427686D01*
X18866486Y-17456257D01*
X18866486Y-17541972D01*
X18852200Y-17570543D01*
X18837914Y-17584829D01*
X18809343Y-17599114D01*
X18766486Y-17599114D01*
X19037914Y-17599114D02*
X19009343Y-17584829D01*
X18995057Y-17556257D01*
X18995057Y-17299114D01*
X19266486Y-17584829D02*
X19237914Y-17599114D01*
X19180771Y-17599114D01*
X19152200Y-17584829D01*
X19137914Y-17556257D01*
X19137914Y-17441972D01*
X19152200Y-17413400D01*
X19180771Y-17399114D01*
X19237914Y-17399114D01*
X19266486Y-17413400D01*
X19280771Y-17441972D01*
X19280771Y-17470543D01*
X19137914Y-17499114D01*
X19395057Y-17584829D02*
X19423629Y-17599114D01*
X19480771Y-17599114D01*
X19509343Y-17584829D01*
X19523629Y-17556257D01*
X19523629Y-17541972D01*
X19509343Y-17513400D01*
X19480771Y-17499114D01*
X19437914Y-17499114D01*
X19409343Y-17484829D01*
X19395057Y-17456257D01*
X19395057Y-17441972D01*
X19409343Y-17413400D01*
X19437914Y-17399114D01*
X19480771Y-17399114D01*
X19509343Y-17413400D01*
X19623628Y-17713400D02*
X19637914Y-17699114D01*
X19666486Y-17656257D01*
X19680771Y-17627686D01*
X19695057Y-17584829D01*
X19709343Y-17513400D01*
X19709343Y-17456257D01*
X19695057Y-17384829D01*
X19680771Y-17341972D01*
X19666486Y-17313400D01*
X19637914Y-17270543D01*
X19623628Y-17256257D01*
X12972200Y-17769400D02*
X13152200Y-17949400D01*
X13152200Y-17769400D02*
X12972200Y-17949400D01*
X13125840Y-17923040D02*
X13125840Y-17795760D01*
X12998560Y-17795760D01*
X12998560Y-17923040D01*
X13125840Y-17923040D01*
X13580771Y-17995114D02*
X13409343Y-17995114D01*
X13495057Y-17995114D02*
X13495057Y-17695114D01*
X13466486Y-17737972D01*
X13437914Y-17766543D01*
X13409343Y-17780829D01*
X13709343Y-17966543D02*
X13723628Y-17980829D01*
X13709343Y-17995114D01*
X13695057Y-17980829D01*
X13709343Y-17966543D01*
X13709343Y-17995114D01*
X13895057Y-17823686D02*
X13866486Y-17809400D01*
X13852200Y-17795114D01*
X13837914Y-17766543D01*
X13837914Y-17752257D01*
X13852200Y-17723686D01*
X13866486Y-17709400D01*
X13895057Y-17695114D01*
X13952200Y-17695114D01*
X13980771Y-17709400D01*
X13995057Y-17723686D01*
X14009343Y-17752257D01*
X14009343Y-17766543D01*
X13995057Y-17795114D01*
X13980771Y-17809400D01*
X13952200Y-17823686D01*
X13895057Y-17823686D01*
X13866486Y-17837972D01*
X13852200Y-17852257D01*
X13837914Y-17880829D01*
X13837914Y-17937972D01*
X13852200Y-17966543D01*
X13866486Y-17980829D01*
X13895057Y-17995114D01*
X13952200Y-17995114D01*
X13980771Y-17980829D01*
X13995057Y-17966543D01*
X14009343Y-17937972D01*
X14009343Y-17880829D01*
X13995057Y-17852257D01*
X13980771Y-17837972D01*
X13952200Y-17823686D01*
X14195057Y-17695114D02*
X14223628Y-17695114D01*
X14252200Y-17709400D01*
X14266486Y-17723686D01*
X14280771Y-17752257D01*
X14295057Y-17809400D01*
X14295057Y-17880829D01*
X14280771Y-17937972D01*
X14266486Y-17966543D01*
X14252200Y-17980829D01*
X14223628Y-17995114D01*
X14195057Y-17995114D01*
X14166486Y-17980829D01*
X14152200Y-17966543D01*
X14137914Y-17937972D01*
X14123628Y-17880829D01*
X14123628Y-17809400D01*
X14137914Y-17752257D01*
X14152200Y-17723686D01*
X14166486Y-17709400D01*
X14195057Y-17695114D01*
X14423628Y-17995114D02*
X14423628Y-17795114D01*
X14423628Y-17823686D02*
X14437914Y-17809400D01*
X14466486Y-17795114D01*
X14509343Y-17795114D01*
X14537914Y-17809400D01*
X14552200Y-17837972D01*
X14552200Y-17995114D01*
X14552200Y-17837972D02*
X14566486Y-17809400D01*
X14595057Y-17795114D01*
X14637914Y-17795114D01*
X14666486Y-17809400D01*
X14680771Y-17837972D01*
X14680771Y-17995114D01*
X14823628Y-17995114D02*
X14823628Y-17795114D01*
X14823628Y-17823686D02*
X14837914Y-17809400D01*
X14866486Y-17795114D01*
X14909343Y-17795114D01*
X14937914Y-17809400D01*
X14952200Y-17837972D01*
X14952200Y-17995114D01*
X14952200Y-17837972D02*
X14966486Y-17809400D01*
X14995057Y-17795114D01*
X15037914Y-17795114D01*
X15066486Y-17809400D01*
X15080771Y-17837972D01*
X15080771Y-17995114D01*
X15666486Y-17680829D02*
X15409343Y-18066543D01*
X16052200Y-17695114D02*
X16080771Y-17695114D01*
X16109343Y-17709400D01*
X16123628Y-17723686D01*
X16137914Y-17752257D01*
X16152200Y-17809400D01*
X16152200Y-17880829D01*
X16137914Y-17937972D01*
X16123628Y-17966543D01*
X16109343Y-17980829D01*
X16080771Y-17995114D01*
X16052200Y-17995114D01*
X16023628Y-17980829D01*
X16009343Y-17966543D01*
X15995057Y-17937972D01*
X15980771Y-17880829D01*
X15980771Y-17809400D01*
X15995057Y-17752257D01*
X16009343Y-17723686D01*
X16023628Y-17709400D01*
X16052200Y-17695114D01*
X16280771Y-17966543D02*
X16295057Y-17980829D01*
X16280771Y-17995114D01*
X16266486Y-17980829D01*
X16280771Y-17966543D01*
X16280771Y-17995114D01*
X16480771Y-17695114D02*
X16509343Y-17695114D01*
X16537914Y-17709400D01*
X16552200Y-17723686D01*
X16566485Y-17752257D01*
X16580771Y-17809400D01*
X16580771Y-17880829D01*
X16566485Y-17937972D01*
X16552200Y-17966543D01*
X16537914Y-17980829D01*
X16509343Y-17995114D01*
X16480771Y-17995114D01*
X16452200Y-17980829D01*
X16437914Y-17966543D01*
X16423628Y-17937972D01*
X16409343Y-17880829D01*
X16409343Y-17809400D01*
X16423628Y-17752257D01*
X16437914Y-17723686D01*
X16452200Y-17709400D01*
X16480771Y-17695114D01*
X16680771Y-17695114D02*
X16880771Y-17695114D01*
X16752200Y-17995114D01*
X17152200Y-17995114D02*
X16980771Y-17995114D01*
X17066486Y-17995114D02*
X17066486Y-17695114D01*
X17037914Y-17737972D01*
X17009343Y-17766543D01*
X16980771Y-17780829D01*
X17266486Y-17695114D02*
X17266486Y-17752257D01*
X17380771Y-17695114D02*
X17380771Y-17752257D01*
X17823628Y-18109400D02*
X17809343Y-18095114D01*
X17780771Y-18052257D01*
X17766486Y-18023686D01*
X17752200Y-17980829D01*
X17737914Y-17909400D01*
X17737914Y-17852257D01*
X17752200Y-17780829D01*
X17766486Y-17737972D01*
X17780771Y-17709400D01*
X17809343Y-17666543D01*
X17823628Y-17652257D01*
X18066486Y-17695114D02*
X18009343Y-17695114D01*
X17980771Y-17709400D01*
X17966486Y-17723686D01*
X17937914Y-17766543D01*
X17923628Y-17823686D01*
X17923628Y-17937972D01*
X17937914Y-17966543D01*
X17952200Y-17980829D01*
X17980771Y-17995114D01*
X18037914Y-17995114D01*
X18066486Y-17980829D01*
X18080771Y-17966543D01*
X18095057Y-17937972D01*
X18095057Y-17866543D01*
X18080771Y-17837972D01*
X18066486Y-17823686D01*
X18037914Y-17809400D01*
X17980771Y-17809400D01*
X17952200Y-17823686D01*
X17937914Y-17837972D01*
X17923628Y-17866543D01*
X18452200Y-17995114D02*
X18452200Y-17695114D01*
X18580771Y-17995114D02*
X18580771Y-17837972D01*
X18566486Y-17809400D01*
X18537914Y-17795114D01*
X18495057Y-17795114D01*
X18466486Y-17809400D01*
X18452200Y-17823686D01*
X18766486Y-17995114D02*
X18737914Y-17980829D01*
X18723628Y-17966543D01*
X18709343Y-17937972D01*
X18709343Y-17852257D01*
X18723628Y-17823686D01*
X18737914Y-17809400D01*
X18766486Y-17795114D01*
X18809343Y-17795114D01*
X18837914Y-17809400D01*
X18852200Y-17823686D01*
X18866486Y-17852257D01*
X18866486Y-17937972D01*
X18852200Y-17966543D01*
X18837914Y-17980829D01*
X18809343Y-17995114D01*
X18766486Y-17995114D01*
X19037914Y-17995114D02*
X19009343Y-17980829D01*
X18995057Y-17952257D01*
X18995057Y-17695114D01*
X19266486Y-17980829D02*
X19237914Y-17995114D01*
X19180771Y-17995114D01*
X19152200Y-17980829D01*
X19137914Y-17952257D01*
X19137914Y-17837972D01*
X19152200Y-17809400D01*
X19180771Y-17795114D01*
X19237914Y-17795114D01*
X19266486Y-17809400D01*
X19280771Y-17837972D01*
X19280771Y-17866543D01*
X19137914Y-17895114D01*
X19395057Y-17980829D02*
X19423629Y-17995114D01*
X19480771Y-17995114D01*
X19509343Y-17980829D01*
X19523629Y-17952257D01*
X19523629Y-17937972D01*
X19509343Y-17909400D01*
X19480771Y-17895114D01*
X19437914Y-17895114D01*
X19409343Y-17880829D01*
X19395057Y-17852257D01*
X19395057Y-17837972D01*
X19409343Y-17809400D01*
X19437914Y-17795114D01*
X19480771Y-17795114D01*
X19509343Y-17809400D01*
X19623628Y-18109400D02*
X19637914Y-18095114D01*
X19666486Y-18052257D01*
X19680771Y-18023686D01*
X19695057Y-17980829D01*
X19709343Y-17909400D01*
X19709343Y-17852257D01*
X19695057Y-17780829D01*
X19680771Y-17737972D01*
X19666486Y-17709400D01*
X19637914Y-17666543D01*
X19623628Y-17652257D01*
M02*
