G04 #@! TF.FileFunction,Soldermask,Top*
%FSLAX46Y46*%
G04 Gerber Fmt 4.6, Leading zero omitted, Abs format (unit mm)*
G04 Created by KiCad (PCBNEW 4.0.7) date 05/30/19 10:30:23*
%MOMM*%
%LPD*%
G01*
G04 APERTURE LIST*
%ADD10C,0.100000*%
%ADD11R,1.520000X1.520000*%
%ADD12C,1.520000*%
%ADD13C,2.200000*%
%ADD14C,2.500000*%
%ADD15O,1.800000X2.600000*%
%ADD16O,2.600000X3.000000*%
%ADD17R,2.286000X1.574800*%
%ADD18O,2.286000X1.574800*%
%ADD19C,2.130000*%
%ADD20R,1.830000X1.930000*%
G04 APERTURE END LIST*
D10*
D11*
X157607000Y-125984000D03*
D12*
X157607000Y-128524000D03*
X157607000Y-131064000D03*
X157607000Y-133604000D03*
X157607000Y-136144000D03*
X160147000Y-136144000D03*
X160147000Y-133604000D03*
X160147000Y-131064000D03*
X160147000Y-128524000D03*
X160147000Y-125984000D03*
D13*
X136652000Y-54864000D03*
X136652000Y-59944000D03*
X136652000Y-80264000D03*
X136652000Y-85344000D03*
X136652000Y-105664000D03*
X136652000Y-110744000D03*
X136652000Y-120904000D03*
X136652000Y-115824000D03*
D14*
X152527000Y-111379000D03*
X142367000Y-111379000D03*
D15*
X143002000Y-53594000D03*
X145542000Y-53594000D03*
X148082000Y-53594000D03*
D16*
X140292000Y-46094000D03*
X150792000Y-46094000D03*
D15*
X143002000Y-78994000D03*
X145542000Y-78994000D03*
X148082000Y-78994000D03*
D16*
X140292000Y-71494000D03*
X150792000Y-71494000D03*
D15*
X143002000Y-104394000D03*
X145542000Y-104394000D03*
X148082000Y-104394000D03*
D16*
X140292000Y-96894000D03*
X150792000Y-96894000D03*
D13*
X136652000Y-49784000D03*
X136652000Y-42164000D03*
X136652000Y-75184000D03*
X136652000Y-67564000D03*
X136652000Y-100584000D03*
X136652000Y-92964000D03*
X159512000Y-100584000D03*
X159512000Y-108204000D03*
X156337000Y-100584000D03*
X156337000Y-108204000D03*
X153162000Y-100584000D03*
X153162000Y-108204000D03*
D17*
X153162000Y-76454000D03*
D18*
X153162000Y-78994000D03*
X153162000Y-81534000D03*
X153162000Y-84074000D03*
X153162000Y-86614000D03*
X153162000Y-89154000D03*
X153162000Y-91694000D03*
X160782000Y-91694000D03*
X160782000Y-89154000D03*
X160782000Y-86614000D03*
X160782000Y-84074000D03*
X160782000Y-81534000D03*
X160782000Y-78994000D03*
X160782000Y-76454000D03*
D13*
X133477000Y-137414000D03*
X137287000Y-137414000D03*
D19*
X148792000Y-134874000D03*
D20*
X151892000Y-134874000D03*
D19*
X140492000Y-134874000D03*
X148792000Y-122174000D03*
D20*
X151892000Y-122174000D03*
D19*
X140492000Y-122174000D03*
D13*
X143637000Y-115189000D03*
X151257000Y-115189000D03*
X159512000Y-111379000D03*
X159512000Y-118999000D03*
M02*
