G04 #@! TF.FileFunction,Copper,L2,Bot,Signal*
%FSLAX46Y46*%
G04 Gerber Fmt 4.6, Leading zero omitted, Abs format (unit mm)*
G04 Created by KiCad (PCBNEW 4.0.7) date 05/30/19 10:30:23*
%MOMM*%
%LPD*%
G01*
G04 APERTURE LIST*
%ADD10C,0.100000*%
%ADD11R,1.520000X1.520000*%
%ADD12C,1.520000*%
%ADD13C,2.200000*%
%ADD14C,2.500000*%
%ADD15O,1.800000X2.600000*%
%ADD16O,2.600000X3.000000*%
%ADD17R,2.286000X1.574800*%
%ADD18O,2.286000X1.574800*%
%ADD19C,2.130000*%
%ADD20R,1.830000X1.930000*%
%ADD21C,0.250000*%
%ADD22C,0.812800*%
G04 APERTURE END LIST*
D10*
D11*
X157607000Y-125984000D03*
D12*
X157607000Y-128524000D03*
X157607000Y-131064000D03*
X157607000Y-133604000D03*
X157607000Y-136144000D03*
X160147000Y-136144000D03*
X160147000Y-133604000D03*
X160147000Y-131064000D03*
X160147000Y-128524000D03*
X160147000Y-125984000D03*
D13*
X136652000Y-54864000D03*
X136652000Y-59944000D03*
X136652000Y-80264000D03*
X136652000Y-85344000D03*
X136652000Y-105664000D03*
X136652000Y-110744000D03*
X136652000Y-120904000D03*
X136652000Y-115824000D03*
D14*
X152527000Y-111379000D03*
X142367000Y-111379000D03*
D15*
X143002000Y-53594000D03*
X145542000Y-53594000D03*
X148082000Y-53594000D03*
D16*
X140292000Y-46094000D03*
X150792000Y-46094000D03*
D15*
X143002000Y-78994000D03*
X145542000Y-78994000D03*
X148082000Y-78994000D03*
D16*
X140292000Y-71494000D03*
X150792000Y-71494000D03*
D15*
X143002000Y-104394000D03*
X145542000Y-104394000D03*
X148082000Y-104394000D03*
D16*
X140292000Y-96894000D03*
X150792000Y-96894000D03*
D13*
X136652000Y-49784000D03*
X136652000Y-42164000D03*
X136652000Y-75184000D03*
X136652000Y-67564000D03*
X136652000Y-100584000D03*
X136652000Y-92964000D03*
X159512000Y-100584000D03*
X159512000Y-108204000D03*
X156337000Y-100584000D03*
X156337000Y-108204000D03*
X153162000Y-100584000D03*
X153162000Y-108204000D03*
D17*
X153162000Y-76454000D03*
D18*
X153162000Y-78994000D03*
X153162000Y-81534000D03*
X153162000Y-84074000D03*
X153162000Y-86614000D03*
X153162000Y-89154000D03*
X153162000Y-91694000D03*
X160782000Y-91694000D03*
X160782000Y-89154000D03*
X160782000Y-86614000D03*
X160782000Y-84074000D03*
X160782000Y-81534000D03*
X160782000Y-78994000D03*
X160782000Y-76454000D03*
D13*
X133477000Y-137414000D03*
X137287000Y-137414000D03*
D19*
X148792000Y-134874000D03*
D20*
X151892000Y-134874000D03*
D19*
X140492000Y-134874000D03*
X148792000Y-122174000D03*
D20*
X151892000Y-122174000D03*
D19*
X140492000Y-122174000D03*
D13*
X143637000Y-115189000D03*
X151257000Y-115189000D03*
X159512000Y-111379000D03*
X159512000Y-118999000D03*
D21*
X162347001Y-65494000D02*
X162502000Y-65339001D01*
D22*
X152527000Y-57404000D02*
X153162000Y-58039000D01*
X151257000Y-57404000D02*
X152527000Y-57404000D01*
X153162000Y-58039000D02*
X153162000Y-59309000D01*
X153162000Y-76454000D02*
X153162000Y-59309000D01*
X136652000Y-56769000D02*
X136652000Y-54864000D01*
X137287000Y-57404000D02*
X136652000Y-56769000D01*
X151257000Y-57404000D02*
X137287000Y-57404000D01*
X136652000Y-54864000D02*
X136652000Y-49784000D01*
X134112000Y-63754000D02*
X133477000Y-64389000D01*
X151257000Y-81534000D02*
X150622000Y-80899000D01*
X150622000Y-80899000D02*
X150622000Y-75184000D01*
X150622000Y-75184000D02*
X149987000Y-74549000D01*
X149987000Y-74549000D02*
X148082000Y-74549000D01*
X148082000Y-74549000D02*
X147447000Y-73914000D01*
X147447000Y-73914000D02*
X147447000Y-65024000D01*
X147447000Y-65024000D02*
X146177000Y-63754000D01*
X146177000Y-63754000D02*
X134112000Y-63754000D01*
X153162000Y-81534000D02*
X151257000Y-81534000D01*
X134112000Y-75184000D02*
X136652000Y-75184000D01*
X133477000Y-74549000D02*
X134112000Y-75184000D01*
X133477000Y-64389000D02*
X133477000Y-74549000D01*
X136652000Y-75184000D02*
X136652000Y-80264000D01*
X132842000Y-89789000D02*
X133477000Y-89154000D01*
X134747000Y-89154000D02*
X133477000Y-89154000D01*
X148717000Y-86614000D02*
X148082000Y-87249000D01*
X148082000Y-87249000D02*
X146177000Y-89154000D01*
X146177000Y-89154000D02*
X134747000Y-89154000D01*
X153162000Y-86614000D02*
X148717000Y-86614000D01*
X132842000Y-89789000D02*
X132842000Y-91059000D01*
X133477000Y-100584000D02*
X136652000Y-100584000D01*
X132842000Y-99949000D02*
X133477000Y-100584000D01*
X132842000Y-91059000D02*
X132842000Y-99949000D01*
X136652000Y-100584000D02*
X136652000Y-105664000D01*
X133477000Y-137414000D02*
X133477000Y-121539000D01*
X134112000Y-120904000D02*
X136652000Y-120904000D01*
X133477000Y-121539000D02*
X134112000Y-120904000D01*
X140492000Y-134874000D02*
X148792000Y-134874000D01*
X137287000Y-137414000D02*
X137287000Y-135509000D01*
X137922000Y-134874000D02*
X140492000Y-134874000D01*
X137287000Y-135509000D02*
X137922000Y-134874000D01*
X154432000Y-111379000D02*
X155067000Y-112014000D01*
X152527000Y-111379000D02*
X154432000Y-111379000D01*
X155067000Y-112014000D02*
X155067000Y-113919000D01*
X157607000Y-125984000D02*
X155702000Y-125984000D01*
X155067000Y-125349000D02*
X155067000Y-113919000D01*
X155702000Y-125984000D02*
X155067000Y-125349000D01*
X157607000Y-125984000D02*
X159512000Y-125984000D01*
X159512000Y-125984000D02*
X160147000Y-125984000D01*
X142367000Y-111379000D02*
X148209000Y-111379000D01*
X148792000Y-111962000D02*
X148792000Y-122174000D01*
X148209000Y-111379000D02*
X148792000Y-111962000D01*
X136652000Y-42164000D02*
X144907000Y-42164000D01*
X145542000Y-42799000D02*
X145542000Y-53594000D01*
X144907000Y-42164000D02*
X145542000Y-42799000D01*
X145542000Y-53594000D02*
X143002000Y-53594000D01*
X159512000Y-96774000D02*
X157607000Y-94869000D01*
X156972000Y-53594000D02*
X157607000Y-54229000D01*
X153797000Y-53594000D02*
X156972000Y-53594000D01*
X157607000Y-54229000D02*
X157607000Y-56134000D01*
X148082000Y-53594000D02*
X153797000Y-53594000D01*
X157607000Y-56134000D02*
X157607000Y-76454000D01*
X153162000Y-78994000D02*
X157607000Y-78994000D01*
X157607000Y-80899000D02*
X157607000Y-78994000D01*
X157607000Y-78994000D02*
X157607000Y-76454000D01*
X159512000Y-96774000D02*
X159512000Y-100584000D01*
X157607000Y-80899000D02*
X157607000Y-94869000D01*
X145542000Y-78994000D02*
X143002000Y-78994000D01*
X136652000Y-67564000D02*
X144907000Y-67564000D01*
X145542000Y-68199000D02*
X145542000Y-78994000D01*
X144907000Y-67564000D02*
X145542000Y-68199000D01*
X148082000Y-78994000D02*
X148082000Y-83439000D01*
X148717000Y-84074000D02*
X153162000Y-84074000D01*
X148082000Y-83439000D02*
X148717000Y-84074000D01*
X155702000Y-84074000D02*
X156337000Y-84709000D01*
X156337000Y-100584000D02*
X156337000Y-84709000D01*
X153162000Y-84074000D02*
X155702000Y-84074000D01*
X145542000Y-104394000D02*
X143002000Y-104394000D01*
X144907000Y-92964000D02*
X145542000Y-93599000D01*
X136652000Y-92964000D02*
X144907000Y-92964000D01*
X145542000Y-93599000D02*
X145542000Y-104394000D01*
X153162000Y-96774000D02*
X155067000Y-94869000D01*
X148082000Y-104394000D02*
X148082000Y-101219000D01*
X148717000Y-100584000D02*
X153162000Y-100584000D01*
X148082000Y-101219000D02*
X148717000Y-100584000D01*
X153162000Y-89154000D02*
X154432000Y-89154000D01*
X154432000Y-89154000D02*
X155067000Y-89789000D01*
X155067000Y-89789000D02*
X155067000Y-94869000D01*
X153162000Y-96774000D02*
X153162000Y-100584000D01*
X157607000Y-136144000D02*
X160147000Y-136144000D01*
X143637000Y-115189000D02*
X141097000Y-115189000D01*
X140492000Y-115794000D02*
X140492000Y-122174000D01*
X141097000Y-115189000D02*
X140492000Y-115794000D01*
X159512000Y-108204000D02*
X159512000Y-111379000D01*
X156337000Y-108204000D02*
X159512000Y-108204000D01*
X153162000Y-108204000D02*
X156337000Y-108204000D01*
M02*
