M48
;DRILL file {KiCad 4.0.7} date 05/30/19 10:30:27
;FORMAT={-:-/ absolute / inch / decimal}
FMAT,2
INCH,TZ
T1C0.032
T2C0.036
T3C0.039
T4C0.040
T5C0.048
T6C0.056
T7C0.056
T8C0.071
%
G90
G05
M72
T1
X5.255Y-5.41
X5.38Y-1.66
X5.38Y-1.96
X5.38Y-2.16
X5.38Y-2.36
X5.38Y-2.66
X5.38Y-2.96
X5.38Y-3.16
X5.38Y-3.36
X5.38Y-3.66
X5.38Y-3.96
X5.38Y-4.16
X5.38Y-4.36
X5.38Y-4.56
X5.38Y-4.76
X5.405Y-5.41
X5.655Y-4.535
X5.955Y-4.535
X6.03Y-3.01
X6.03Y-3.11
X6.03Y-3.21
X6.03Y-3.31
X6.03Y-3.41
X6.03Y-3.51
X6.03Y-3.61
X6.03Y-3.96
X6.03Y-4.26
X6.155Y-3.96
X6.155Y-4.26
X6.28Y-3.96
X6.28Y-4.26
X6.28Y-4.385
X6.28Y-4.685
X6.33Y-3.01
X6.33Y-3.11
X6.33Y-3.21
X6.33Y-3.31
X6.33Y-3.41
X6.33Y-3.51
X6.33Y-3.61
T2
X6.205Y-4.96
X6.205Y-5.06
X6.205Y-5.16
X6.205Y-5.26
X6.205Y-5.36
X6.305Y-4.96
X6.305Y-5.06
X6.305Y-5.16
X6.305Y-5.26
X6.305Y-5.36
T3
X5.63Y-2.11
X5.63Y-3.11
X5.63Y-4.11
X5.73Y-2.11
X5.73Y-3.11
X5.73Y-4.11
X5.83Y-2.11
X5.83Y-3.11
X5.83Y-4.11
T4
X5.605Y-4.385
X6.005Y-4.385
T5
X5.98Y-4.81
X5.98Y-5.31
T6
X5.858Y-4.81
X5.858Y-5.31
T7
X5.5312Y-4.81
X5.5312Y-5.31
T8
X5.5233Y-1.8147
X5.5233Y-2.8147
X5.5233Y-3.8147
X5.9367Y-1.8147
X5.9367Y-2.8147
X5.9367Y-3.8147
T0
M30
