G04 #@! TF.FileFunction,Copper,L2,Bot,Signal*
%FSLAX46Y46*%
G04 Gerber Fmt 4.6, Leading zero omitted, Abs format (unit mm)*
G04 Created by KiCad (PCBNEW 4.0.7) date 05/31/19 08:20:34*
%MOMM*%
%LPD*%
G01*
G04 APERTURE LIST*
%ADD10C,0.100000*%
%ADD11C,6.000000*%
%ADD12C,3.300000*%
%ADD13C,0.254000*%
G04 APERTURE END LIST*
D10*
D11*
X78740000Y-142240000D03*
X78740000Y-154940000D03*
D12*
X66182240Y-45679360D03*
X91582240Y-45679360D03*
X66182240Y-168178480D03*
X91582240Y-168178480D03*
D13*
G36*
X98121000Y-170409400D02*
X92184754Y-170409400D01*
X92846861Y-170135146D01*
X92851521Y-170126397D01*
X92874898Y-170116738D01*
X93518239Y-169474519D01*
X93529121Y-169448313D01*
X93538906Y-169443101D01*
X93699602Y-169037749D01*
X93866843Y-168634989D01*
X93866860Y-168615846D01*
X93873913Y-168598054D01*
X93867256Y-168162064D01*
X93867636Y-167725959D01*
X93860326Y-167708268D01*
X93860034Y-167689130D01*
X93538906Y-166913859D01*
X93530157Y-166909199D01*
X93520498Y-166885822D01*
X92878279Y-166242481D01*
X92852073Y-166231599D01*
X92846861Y-166221814D01*
X92441509Y-166061118D01*
X92038749Y-165893877D01*
X92019606Y-165893860D01*
X92001814Y-165886807D01*
X91565824Y-165893464D01*
X91129719Y-165893084D01*
X91112028Y-165900394D01*
X91092890Y-165900686D01*
X90317619Y-166221814D01*
X90312959Y-166230563D01*
X90289582Y-166240222D01*
X89646241Y-166882441D01*
X89635359Y-166908647D01*
X89625574Y-166913859D01*
X89464878Y-167319211D01*
X89297637Y-167721971D01*
X89297620Y-167741114D01*
X89290567Y-167758906D01*
X89297224Y-168194896D01*
X89296844Y-168631001D01*
X89304154Y-168648692D01*
X89304446Y-168667830D01*
X89625574Y-169443101D01*
X89634323Y-169447761D01*
X89643982Y-169471138D01*
X90286201Y-170114479D01*
X90312407Y-170125361D01*
X90317619Y-170135146D01*
X90722971Y-170295842D01*
X90996448Y-170409400D01*
X66784754Y-170409400D01*
X67446861Y-170135146D01*
X67451521Y-170126397D01*
X67474898Y-170116738D01*
X68118239Y-169474519D01*
X68129121Y-169448313D01*
X68138906Y-169443101D01*
X68299602Y-169037749D01*
X68466843Y-168634989D01*
X68466860Y-168615846D01*
X68473913Y-168598054D01*
X68467256Y-168162064D01*
X68467636Y-167725959D01*
X68460326Y-167708268D01*
X68460034Y-167689130D01*
X68138906Y-166913859D01*
X68130157Y-166909199D01*
X68120498Y-166885822D01*
X67478279Y-166242481D01*
X67452073Y-166231599D01*
X67446861Y-166221814D01*
X67041509Y-166061118D01*
X66638749Y-165893877D01*
X66619606Y-165893860D01*
X66601814Y-165886807D01*
X66165824Y-165893464D01*
X65729719Y-165893084D01*
X65712028Y-165900394D01*
X65692890Y-165900686D01*
X64917619Y-166221814D01*
X64912959Y-166230563D01*
X64889582Y-166240222D01*
X64246241Y-166882441D01*
X64235359Y-166908647D01*
X64225574Y-166913859D01*
X64064878Y-167319211D01*
X63897637Y-167721971D01*
X63897620Y-167741114D01*
X63890567Y-167758906D01*
X63897224Y-168194896D01*
X63896844Y-168631001D01*
X63904154Y-168648692D01*
X63904446Y-168667830D01*
X64225574Y-169443101D01*
X64234323Y-169447761D01*
X64243982Y-169471138D01*
X64886201Y-170114479D01*
X64912407Y-170125361D01*
X64917619Y-170135146D01*
X65322971Y-170295842D01*
X65596448Y-170409400D01*
X59359000Y-170409400D01*
X59359000Y-155644875D01*
X75101432Y-155644875D01*
X75104377Y-155652086D01*
X75104370Y-155659874D01*
X75377612Y-156321170D01*
X75648146Y-156983639D01*
X75656512Y-156996160D01*
X75656600Y-156996372D01*
X75656764Y-156996536D01*
X75668723Y-157014434D01*
X75689861Y-157029691D01*
X76654683Y-157996198D01*
X76665566Y-158011277D01*
X76672746Y-158014293D01*
X76678249Y-158019806D01*
X77339149Y-158294236D01*
X77998800Y-158571342D01*
X78006588Y-158571381D01*
X78013782Y-158574368D01*
X78729334Y-158574992D01*
X79444875Y-158578568D01*
X79452086Y-158575623D01*
X79459874Y-158575630D01*
X80121170Y-158302388D01*
X80783639Y-158031854D01*
X80796160Y-158023488D01*
X80796372Y-158023400D01*
X80796536Y-158023236D01*
X80814434Y-158011277D01*
X80829691Y-157990139D01*
X81796198Y-157025317D01*
X81811277Y-157014434D01*
X81814293Y-157007254D01*
X81819806Y-157001751D01*
X82094236Y-156340851D01*
X82371342Y-155681200D01*
X82371381Y-155673412D01*
X82374368Y-155666218D01*
X82374992Y-154950666D01*
X82378568Y-154235125D01*
X82375623Y-154227914D01*
X82375630Y-154220126D01*
X82102388Y-153558830D01*
X81831854Y-152896361D01*
X81823488Y-152883840D01*
X81823400Y-152883628D01*
X81823236Y-152883464D01*
X81811277Y-152865566D01*
X81790139Y-152850309D01*
X80825317Y-151883802D01*
X80814434Y-151868723D01*
X80807254Y-151865707D01*
X80801751Y-151860194D01*
X80140851Y-151585764D01*
X79481200Y-151308658D01*
X79473412Y-151308619D01*
X79466218Y-151305632D01*
X78750666Y-151305008D01*
X78035125Y-151301432D01*
X78027914Y-151304377D01*
X78020126Y-151304370D01*
X77358830Y-151577612D01*
X76696361Y-151848146D01*
X76683840Y-151856512D01*
X76683628Y-151856600D01*
X76683464Y-151856764D01*
X76665566Y-151868723D01*
X76650309Y-151889861D01*
X75683802Y-152854683D01*
X75668723Y-152865566D01*
X75665707Y-152872746D01*
X75660194Y-152878249D01*
X75385764Y-153539149D01*
X75108658Y-154198800D01*
X75108619Y-154206588D01*
X75105632Y-154213782D01*
X75105008Y-154929334D01*
X75101432Y-155644875D01*
X59359000Y-155644875D01*
X59359000Y-142944875D01*
X75101432Y-142944875D01*
X75104377Y-142952086D01*
X75104370Y-142959874D01*
X75377612Y-143621170D01*
X75648146Y-144283639D01*
X75656512Y-144296160D01*
X75656600Y-144296372D01*
X75656764Y-144296536D01*
X75668723Y-144314434D01*
X75689861Y-144329691D01*
X76654683Y-145296198D01*
X76665566Y-145311277D01*
X76672746Y-145314293D01*
X76678249Y-145319806D01*
X77339149Y-145594236D01*
X77998800Y-145871342D01*
X78006588Y-145871381D01*
X78013782Y-145874368D01*
X78729334Y-145874992D01*
X79444875Y-145878568D01*
X79452086Y-145875623D01*
X79459874Y-145875630D01*
X80121170Y-145602388D01*
X80783639Y-145331854D01*
X80796160Y-145323488D01*
X80796372Y-145323400D01*
X80796536Y-145323236D01*
X80814434Y-145311277D01*
X80829691Y-145290139D01*
X81796198Y-144325317D01*
X81811277Y-144314434D01*
X81814293Y-144307254D01*
X81819806Y-144301751D01*
X82094236Y-143640851D01*
X82371342Y-142981200D01*
X82371381Y-142973412D01*
X82374368Y-142966218D01*
X82374992Y-142250666D01*
X82378568Y-141535125D01*
X82375623Y-141527914D01*
X82375630Y-141520126D01*
X82102388Y-140858830D01*
X81831854Y-140196361D01*
X81823488Y-140183840D01*
X81823400Y-140183628D01*
X81823236Y-140183464D01*
X81811277Y-140165566D01*
X81790139Y-140150309D01*
X80825317Y-139183802D01*
X80814434Y-139168723D01*
X80807254Y-139165707D01*
X80801751Y-139160194D01*
X80140851Y-138885764D01*
X79481200Y-138608658D01*
X79473412Y-138608619D01*
X79466218Y-138605632D01*
X78750666Y-138605008D01*
X78035125Y-138601432D01*
X78027914Y-138604377D01*
X78020126Y-138604370D01*
X77358830Y-138877612D01*
X76696361Y-139148146D01*
X76683840Y-139156512D01*
X76683628Y-139156600D01*
X76683464Y-139156764D01*
X76665566Y-139168723D01*
X76650309Y-139189861D01*
X75683802Y-140154683D01*
X75668723Y-140165566D01*
X75665707Y-140172746D01*
X75660194Y-140178249D01*
X75385764Y-140839149D01*
X75108658Y-141498800D01*
X75108619Y-141506588D01*
X75105632Y-141513782D01*
X75105008Y-142229334D01*
X75101432Y-142944875D01*
X59359000Y-142944875D01*
X59359000Y-117648992D01*
X74654292Y-117648992D01*
X75274886Y-119150944D01*
X76423012Y-120301075D01*
X77923878Y-120924289D01*
X79548992Y-120925708D01*
X81050944Y-120305114D01*
X82201075Y-119156988D01*
X82824289Y-117656122D01*
X82825708Y-116031008D01*
X82205114Y-114529056D01*
X81056988Y-113378925D01*
X79556122Y-112755711D01*
X77931008Y-112754292D01*
X76429056Y-113374886D01*
X75278925Y-114523012D01*
X74655711Y-116023878D01*
X74654292Y-117648992D01*
X59359000Y-117648992D01*
X59359000Y-92248992D01*
X74654292Y-92248992D01*
X75274886Y-93750944D01*
X76423012Y-94901075D01*
X77923878Y-95524289D01*
X79548992Y-95525708D01*
X81050944Y-94905114D01*
X82201075Y-93756988D01*
X82824289Y-92256122D01*
X82825708Y-90631008D01*
X82205114Y-89129056D01*
X81056988Y-87978925D01*
X79556122Y-87355711D01*
X77931008Y-87354292D01*
X76429056Y-87974886D01*
X75278925Y-89123012D01*
X74655711Y-90623878D01*
X74654292Y-92248992D01*
X59359000Y-92248992D01*
X59359000Y-66848992D01*
X74654292Y-66848992D01*
X75274886Y-68350944D01*
X76423012Y-69501075D01*
X77923878Y-70124289D01*
X79548992Y-70125708D01*
X81050944Y-69505114D01*
X82201075Y-68356988D01*
X82824289Y-66856122D01*
X82825708Y-65231008D01*
X82205114Y-63729056D01*
X81056988Y-62578925D01*
X79556122Y-61955711D01*
X77931008Y-61954292D01*
X76429056Y-62574886D01*
X75278925Y-63723012D01*
X74655711Y-65223878D01*
X74654292Y-66848992D01*
X59359000Y-66848992D01*
X59359000Y-45259786D01*
X63890567Y-45259786D01*
X63897224Y-45695776D01*
X63896844Y-46131881D01*
X63904154Y-46149572D01*
X63904446Y-46168710D01*
X64225574Y-46943981D01*
X64234323Y-46948641D01*
X64243982Y-46972018D01*
X64886201Y-47615359D01*
X64912407Y-47626241D01*
X64917619Y-47636026D01*
X65322971Y-47796722D01*
X65725731Y-47963963D01*
X65744874Y-47963980D01*
X65762666Y-47971033D01*
X66198656Y-47964376D01*
X66634761Y-47964756D01*
X66652452Y-47957446D01*
X66671590Y-47957154D01*
X67446861Y-47636026D01*
X67451521Y-47627277D01*
X67474898Y-47617618D01*
X68118239Y-46975399D01*
X68129121Y-46949193D01*
X68138906Y-46943981D01*
X68299602Y-46538629D01*
X68466843Y-46135869D01*
X68466860Y-46116726D01*
X68473913Y-46098934D01*
X68467256Y-45662944D01*
X68467607Y-45259786D01*
X89290567Y-45259786D01*
X89297224Y-45695776D01*
X89296844Y-46131881D01*
X89304154Y-46149572D01*
X89304446Y-46168710D01*
X89625574Y-46943981D01*
X89634323Y-46948641D01*
X89643982Y-46972018D01*
X90286201Y-47615359D01*
X90312407Y-47626241D01*
X90317619Y-47636026D01*
X90722971Y-47796722D01*
X91125731Y-47963963D01*
X91144874Y-47963980D01*
X91162666Y-47971033D01*
X91598656Y-47964376D01*
X92034761Y-47964756D01*
X92052452Y-47957446D01*
X92071590Y-47957154D01*
X92846861Y-47636026D01*
X92851521Y-47627277D01*
X92874898Y-47617618D01*
X93518239Y-46975399D01*
X93529121Y-46949193D01*
X93538906Y-46943981D01*
X93699602Y-46538629D01*
X93866843Y-46135869D01*
X93866860Y-46116726D01*
X93873913Y-46098934D01*
X93867256Y-45662944D01*
X93867636Y-45226839D01*
X93860326Y-45209148D01*
X93860034Y-45190010D01*
X93538906Y-44414739D01*
X93530157Y-44410079D01*
X93520498Y-44386702D01*
X92878279Y-43743361D01*
X92852073Y-43732479D01*
X92846861Y-43722694D01*
X92441509Y-43561998D01*
X92038749Y-43394757D01*
X92019606Y-43394740D01*
X92001814Y-43387687D01*
X91565824Y-43394344D01*
X91129719Y-43393964D01*
X91112028Y-43401274D01*
X91092890Y-43401566D01*
X90317619Y-43722694D01*
X90312959Y-43731443D01*
X90289582Y-43741102D01*
X89646241Y-44383321D01*
X89635359Y-44409527D01*
X89625574Y-44414739D01*
X89464878Y-44820091D01*
X89297637Y-45222851D01*
X89297620Y-45241994D01*
X89290567Y-45259786D01*
X68467607Y-45259786D01*
X68467636Y-45226839D01*
X68460326Y-45209148D01*
X68460034Y-45190010D01*
X68138906Y-44414739D01*
X68130157Y-44410079D01*
X68120498Y-44386702D01*
X67478279Y-43743361D01*
X67452073Y-43732479D01*
X67446861Y-43722694D01*
X67041509Y-43561998D01*
X66638749Y-43394757D01*
X66619606Y-43394740D01*
X66601814Y-43387687D01*
X66165824Y-43394344D01*
X65729719Y-43393964D01*
X65712028Y-43401274D01*
X65692890Y-43401566D01*
X64917619Y-43722694D01*
X64912959Y-43731443D01*
X64889582Y-43741102D01*
X64246241Y-44383321D01*
X64235359Y-44409527D01*
X64225574Y-44414739D01*
X64064878Y-44820091D01*
X63897637Y-45222851D01*
X63897620Y-45241994D01*
X63890567Y-45259786D01*
X59359000Y-45259786D01*
X59359000Y-43357000D01*
X98121000Y-43357000D01*
X98121000Y-170409400D01*
X98121000Y-170409400D01*
G37*
X98121000Y-170409400D02*
X92184754Y-170409400D01*
X92846861Y-170135146D01*
X92851521Y-170126397D01*
X92874898Y-170116738D01*
X93518239Y-169474519D01*
X93529121Y-169448313D01*
X93538906Y-169443101D01*
X93699602Y-169037749D01*
X93866843Y-168634989D01*
X93866860Y-168615846D01*
X93873913Y-168598054D01*
X93867256Y-168162064D01*
X93867636Y-167725959D01*
X93860326Y-167708268D01*
X93860034Y-167689130D01*
X93538906Y-166913859D01*
X93530157Y-166909199D01*
X93520498Y-166885822D01*
X92878279Y-166242481D01*
X92852073Y-166231599D01*
X92846861Y-166221814D01*
X92441509Y-166061118D01*
X92038749Y-165893877D01*
X92019606Y-165893860D01*
X92001814Y-165886807D01*
X91565824Y-165893464D01*
X91129719Y-165893084D01*
X91112028Y-165900394D01*
X91092890Y-165900686D01*
X90317619Y-166221814D01*
X90312959Y-166230563D01*
X90289582Y-166240222D01*
X89646241Y-166882441D01*
X89635359Y-166908647D01*
X89625574Y-166913859D01*
X89464878Y-167319211D01*
X89297637Y-167721971D01*
X89297620Y-167741114D01*
X89290567Y-167758906D01*
X89297224Y-168194896D01*
X89296844Y-168631001D01*
X89304154Y-168648692D01*
X89304446Y-168667830D01*
X89625574Y-169443101D01*
X89634323Y-169447761D01*
X89643982Y-169471138D01*
X90286201Y-170114479D01*
X90312407Y-170125361D01*
X90317619Y-170135146D01*
X90722971Y-170295842D01*
X90996448Y-170409400D01*
X66784754Y-170409400D01*
X67446861Y-170135146D01*
X67451521Y-170126397D01*
X67474898Y-170116738D01*
X68118239Y-169474519D01*
X68129121Y-169448313D01*
X68138906Y-169443101D01*
X68299602Y-169037749D01*
X68466843Y-168634989D01*
X68466860Y-168615846D01*
X68473913Y-168598054D01*
X68467256Y-168162064D01*
X68467636Y-167725959D01*
X68460326Y-167708268D01*
X68460034Y-167689130D01*
X68138906Y-166913859D01*
X68130157Y-166909199D01*
X68120498Y-166885822D01*
X67478279Y-166242481D01*
X67452073Y-166231599D01*
X67446861Y-166221814D01*
X67041509Y-166061118D01*
X66638749Y-165893877D01*
X66619606Y-165893860D01*
X66601814Y-165886807D01*
X66165824Y-165893464D01*
X65729719Y-165893084D01*
X65712028Y-165900394D01*
X65692890Y-165900686D01*
X64917619Y-166221814D01*
X64912959Y-166230563D01*
X64889582Y-166240222D01*
X64246241Y-166882441D01*
X64235359Y-166908647D01*
X64225574Y-166913859D01*
X64064878Y-167319211D01*
X63897637Y-167721971D01*
X63897620Y-167741114D01*
X63890567Y-167758906D01*
X63897224Y-168194896D01*
X63896844Y-168631001D01*
X63904154Y-168648692D01*
X63904446Y-168667830D01*
X64225574Y-169443101D01*
X64234323Y-169447761D01*
X64243982Y-169471138D01*
X64886201Y-170114479D01*
X64912407Y-170125361D01*
X64917619Y-170135146D01*
X65322971Y-170295842D01*
X65596448Y-170409400D01*
X59359000Y-170409400D01*
X59359000Y-155644875D01*
X75101432Y-155644875D01*
X75104377Y-155652086D01*
X75104370Y-155659874D01*
X75377612Y-156321170D01*
X75648146Y-156983639D01*
X75656512Y-156996160D01*
X75656600Y-156996372D01*
X75656764Y-156996536D01*
X75668723Y-157014434D01*
X75689861Y-157029691D01*
X76654683Y-157996198D01*
X76665566Y-158011277D01*
X76672746Y-158014293D01*
X76678249Y-158019806D01*
X77339149Y-158294236D01*
X77998800Y-158571342D01*
X78006588Y-158571381D01*
X78013782Y-158574368D01*
X78729334Y-158574992D01*
X79444875Y-158578568D01*
X79452086Y-158575623D01*
X79459874Y-158575630D01*
X80121170Y-158302388D01*
X80783639Y-158031854D01*
X80796160Y-158023488D01*
X80796372Y-158023400D01*
X80796536Y-158023236D01*
X80814434Y-158011277D01*
X80829691Y-157990139D01*
X81796198Y-157025317D01*
X81811277Y-157014434D01*
X81814293Y-157007254D01*
X81819806Y-157001751D01*
X82094236Y-156340851D01*
X82371342Y-155681200D01*
X82371381Y-155673412D01*
X82374368Y-155666218D01*
X82374992Y-154950666D01*
X82378568Y-154235125D01*
X82375623Y-154227914D01*
X82375630Y-154220126D01*
X82102388Y-153558830D01*
X81831854Y-152896361D01*
X81823488Y-152883840D01*
X81823400Y-152883628D01*
X81823236Y-152883464D01*
X81811277Y-152865566D01*
X81790139Y-152850309D01*
X80825317Y-151883802D01*
X80814434Y-151868723D01*
X80807254Y-151865707D01*
X80801751Y-151860194D01*
X80140851Y-151585764D01*
X79481200Y-151308658D01*
X79473412Y-151308619D01*
X79466218Y-151305632D01*
X78750666Y-151305008D01*
X78035125Y-151301432D01*
X78027914Y-151304377D01*
X78020126Y-151304370D01*
X77358830Y-151577612D01*
X76696361Y-151848146D01*
X76683840Y-151856512D01*
X76683628Y-151856600D01*
X76683464Y-151856764D01*
X76665566Y-151868723D01*
X76650309Y-151889861D01*
X75683802Y-152854683D01*
X75668723Y-152865566D01*
X75665707Y-152872746D01*
X75660194Y-152878249D01*
X75385764Y-153539149D01*
X75108658Y-154198800D01*
X75108619Y-154206588D01*
X75105632Y-154213782D01*
X75105008Y-154929334D01*
X75101432Y-155644875D01*
X59359000Y-155644875D01*
X59359000Y-142944875D01*
X75101432Y-142944875D01*
X75104377Y-142952086D01*
X75104370Y-142959874D01*
X75377612Y-143621170D01*
X75648146Y-144283639D01*
X75656512Y-144296160D01*
X75656600Y-144296372D01*
X75656764Y-144296536D01*
X75668723Y-144314434D01*
X75689861Y-144329691D01*
X76654683Y-145296198D01*
X76665566Y-145311277D01*
X76672746Y-145314293D01*
X76678249Y-145319806D01*
X77339149Y-145594236D01*
X77998800Y-145871342D01*
X78006588Y-145871381D01*
X78013782Y-145874368D01*
X78729334Y-145874992D01*
X79444875Y-145878568D01*
X79452086Y-145875623D01*
X79459874Y-145875630D01*
X80121170Y-145602388D01*
X80783639Y-145331854D01*
X80796160Y-145323488D01*
X80796372Y-145323400D01*
X80796536Y-145323236D01*
X80814434Y-145311277D01*
X80829691Y-145290139D01*
X81796198Y-144325317D01*
X81811277Y-144314434D01*
X81814293Y-144307254D01*
X81819806Y-144301751D01*
X82094236Y-143640851D01*
X82371342Y-142981200D01*
X82371381Y-142973412D01*
X82374368Y-142966218D01*
X82374992Y-142250666D01*
X82378568Y-141535125D01*
X82375623Y-141527914D01*
X82375630Y-141520126D01*
X82102388Y-140858830D01*
X81831854Y-140196361D01*
X81823488Y-140183840D01*
X81823400Y-140183628D01*
X81823236Y-140183464D01*
X81811277Y-140165566D01*
X81790139Y-140150309D01*
X80825317Y-139183802D01*
X80814434Y-139168723D01*
X80807254Y-139165707D01*
X80801751Y-139160194D01*
X80140851Y-138885764D01*
X79481200Y-138608658D01*
X79473412Y-138608619D01*
X79466218Y-138605632D01*
X78750666Y-138605008D01*
X78035125Y-138601432D01*
X78027914Y-138604377D01*
X78020126Y-138604370D01*
X77358830Y-138877612D01*
X76696361Y-139148146D01*
X76683840Y-139156512D01*
X76683628Y-139156600D01*
X76683464Y-139156764D01*
X76665566Y-139168723D01*
X76650309Y-139189861D01*
X75683802Y-140154683D01*
X75668723Y-140165566D01*
X75665707Y-140172746D01*
X75660194Y-140178249D01*
X75385764Y-140839149D01*
X75108658Y-141498800D01*
X75108619Y-141506588D01*
X75105632Y-141513782D01*
X75105008Y-142229334D01*
X75101432Y-142944875D01*
X59359000Y-142944875D01*
X59359000Y-117648992D01*
X74654292Y-117648992D01*
X75274886Y-119150944D01*
X76423012Y-120301075D01*
X77923878Y-120924289D01*
X79548992Y-120925708D01*
X81050944Y-120305114D01*
X82201075Y-119156988D01*
X82824289Y-117656122D01*
X82825708Y-116031008D01*
X82205114Y-114529056D01*
X81056988Y-113378925D01*
X79556122Y-112755711D01*
X77931008Y-112754292D01*
X76429056Y-113374886D01*
X75278925Y-114523012D01*
X74655711Y-116023878D01*
X74654292Y-117648992D01*
X59359000Y-117648992D01*
X59359000Y-92248992D01*
X74654292Y-92248992D01*
X75274886Y-93750944D01*
X76423012Y-94901075D01*
X77923878Y-95524289D01*
X79548992Y-95525708D01*
X81050944Y-94905114D01*
X82201075Y-93756988D01*
X82824289Y-92256122D01*
X82825708Y-90631008D01*
X82205114Y-89129056D01*
X81056988Y-87978925D01*
X79556122Y-87355711D01*
X77931008Y-87354292D01*
X76429056Y-87974886D01*
X75278925Y-89123012D01*
X74655711Y-90623878D01*
X74654292Y-92248992D01*
X59359000Y-92248992D01*
X59359000Y-66848992D01*
X74654292Y-66848992D01*
X75274886Y-68350944D01*
X76423012Y-69501075D01*
X77923878Y-70124289D01*
X79548992Y-70125708D01*
X81050944Y-69505114D01*
X82201075Y-68356988D01*
X82824289Y-66856122D01*
X82825708Y-65231008D01*
X82205114Y-63729056D01*
X81056988Y-62578925D01*
X79556122Y-61955711D01*
X77931008Y-61954292D01*
X76429056Y-62574886D01*
X75278925Y-63723012D01*
X74655711Y-65223878D01*
X74654292Y-66848992D01*
X59359000Y-66848992D01*
X59359000Y-45259786D01*
X63890567Y-45259786D01*
X63897224Y-45695776D01*
X63896844Y-46131881D01*
X63904154Y-46149572D01*
X63904446Y-46168710D01*
X64225574Y-46943981D01*
X64234323Y-46948641D01*
X64243982Y-46972018D01*
X64886201Y-47615359D01*
X64912407Y-47626241D01*
X64917619Y-47636026D01*
X65322971Y-47796722D01*
X65725731Y-47963963D01*
X65744874Y-47963980D01*
X65762666Y-47971033D01*
X66198656Y-47964376D01*
X66634761Y-47964756D01*
X66652452Y-47957446D01*
X66671590Y-47957154D01*
X67446861Y-47636026D01*
X67451521Y-47627277D01*
X67474898Y-47617618D01*
X68118239Y-46975399D01*
X68129121Y-46949193D01*
X68138906Y-46943981D01*
X68299602Y-46538629D01*
X68466843Y-46135869D01*
X68466860Y-46116726D01*
X68473913Y-46098934D01*
X68467256Y-45662944D01*
X68467607Y-45259786D01*
X89290567Y-45259786D01*
X89297224Y-45695776D01*
X89296844Y-46131881D01*
X89304154Y-46149572D01*
X89304446Y-46168710D01*
X89625574Y-46943981D01*
X89634323Y-46948641D01*
X89643982Y-46972018D01*
X90286201Y-47615359D01*
X90312407Y-47626241D01*
X90317619Y-47636026D01*
X90722971Y-47796722D01*
X91125731Y-47963963D01*
X91144874Y-47963980D01*
X91162666Y-47971033D01*
X91598656Y-47964376D01*
X92034761Y-47964756D01*
X92052452Y-47957446D01*
X92071590Y-47957154D01*
X92846861Y-47636026D01*
X92851521Y-47627277D01*
X92874898Y-47617618D01*
X93518239Y-46975399D01*
X93529121Y-46949193D01*
X93538906Y-46943981D01*
X93699602Y-46538629D01*
X93866843Y-46135869D01*
X93866860Y-46116726D01*
X93873913Y-46098934D01*
X93867256Y-45662944D01*
X93867636Y-45226839D01*
X93860326Y-45209148D01*
X93860034Y-45190010D01*
X93538906Y-44414739D01*
X93530157Y-44410079D01*
X93520498Y-44386702D01*
X92878279Y-43743361D01*
X92852073Y-43732479D01*
X92846861Y-43722694D01*
X92441509Y-43561998D01*
X92038749Y-43394757D01*
X92019606Y-43394740D01*
X92001814Y-43387687D01*
X91565824Y-43394344D01*
X91129719Y-43393964D01*
X91112028Y-43401274D01*
X91092890Y-43401566D01*
X90317619Y-43722694D01*
X90312959Y-43731443D01*
X90289582Y-43741102D01*
X89646241Y-44383321D01*
X89635359Y-44409527D01*
X89625574Y-44414739D01*
X89464878Y-44820091D01*
X89297637Y-45222851D01*
X89297620Y-45241994D01*
X89290567Y-45259786D01*
X68467607Y-45259786D01*
X68467636Y-45226839D01*
X68460326Y-45209148D01*
X68460034Y-45190010D01*
X68138906Y-44414739D01*
X68130157Y-44410079D01*
X68120498Y-44386702D01*
X67478279Y-43743361D01*
X67452073Y-43732479D01*
X67446861Y-43722694D01*
X67041509Y-43561998D01*
X66638749Y-43394757D01*
X66619606Y-43394740D01*
X66601814Y-43387687D01*
X66165824Y-43394344D01*
X65729719Y-43393964D01*
X65712028Y-43401274D01*
X65692890Y-43401566D01*
X64917619Y-43722694D01*
X64912959Y-43731443D01*
X64889582Y-43741102D01*
X64246241Y-44383321D01*
X64235359Y-44409527D01*
X64225574Y-44414739D01*
X64064878Y-44820091D01*
X63897637Y-45222851D01*
X63897620Y-45241994D01*
X63890567Y-45259786D01*
X59359000Y-45259786D01*
X59359000Y-43357000D01*
X98121000Y-43357000D01*
X98121000Y-170409400D01*
M02*
